<?xml version="1.0" encoding="utf-8"?>
<!-- Generator: Adobe Illustrator 25.2.0, SVG Export Plug-In . SVG Version: 6.00 Build 0)  -->
<svg version="1.1" id="Layer_1" xmlns="http://www.w3.org/2000/svg" xmlns:xlink="http://www.w3.org/1999/xlink" x="0px" y="0px"
	 viewBox="0 0 220 70" style="enable-background:new 0 0 220 70;" xml:space="preserve">
<style type="text/css">
	.st0{fill:#FFFFFF;}
</style>
<g>
	<path class="st0" d="M8,16.7c0.5-1.2,0.9-2.4,1.6-3.6c2.5-4.5,6.8-6.1,11.6-6.4c8-0.5,13.1,2.8,15.4,10.5
		c2.9,9.9,5.4,19.9,8.1,29.8c0.3,1,0.5,1.9,0.9,2.8c0.6,1.4,1.8,2.1,3.4,1.9c1.6-0.2,2.2-1.3,2.4-2.8c0.1-0.7,0.1-1.3,0.1-2
		c0-12.4,0-24.8,0-37.2c0-1.6,0.4-2,2-2c2.8,0.1,5.6,0.1,8.4,0c1.1,0,1.4,0.3,1.4,1.3C63,23,63.1,36.8,63,50.5
		c-0.1,7.4-4.3,11.7-11.8,12.6c-0.3,0-0.5,0.1-0.6,0.4c-1.6,0-3.2,0-4.8,0c-0.1-0.1-0.2-0.3-0.4-0.4c-6.1-1.1-9.5-5-11-10.7
		c-1.4-5.2-2.8-10.4-4.2-15.5c-1.4-5.3-2.8-10.5-4.2-15.8c-0.4-1.3-1-2.5-2.6-2.7c-2.4-0.4-3.6,0.8-3.6,3.7c0,12.7,0,25.4,0,38.1
		c0,1.5-0.3,2-1.9,2c-3.3-0.1-6.5-0.3-9.8,0.1C8,47.1,8,31.9,8,16.7z"/>
	<path class="st0" d="M126.3,62.1c-7.2,0-13.3,0-19.4,0c-1.5,0-2.2-0.3-2.6-1.9c-4.2-13.2-8.5-26.4-12.7-39.6
		c-0.2-0.8-0.4-1.6-1.1-2.1c-1.3-1-2.8-0.2-3.4,1.7c-2.5,7.8-5.1,15.7-7.6,23.5c-1.8,5.6-3.6,11.1-5.3,16.7c-0.4,1.3-1,1.7-2.4,1.7
		c-2.9-0.1-5.8-0.1-8.6,0c-1.3,0-1.7-0.2-1.2-1.5c4.8-14.9,9.5-29.9,14.4-44.7c2.7-8.3,12-11.7,19.8-7.6c3,1.6,4.8,4,5.8,7.1
		c3.3,10,6.5,20.1,9.7,30.1c0.6,1.7,0.7,4,1.9,4.9c1.2,0.9,3.5,0.3,5.3,0.3c7.9,0,15.8,0,23.7,0c4,0,5.6-1.8,5.4-5.5
		c-0.1-2.1-1.2-3.4-3.3-4c-1.5-0.4-3-0.4-4.6-0.4c-4.8-0.1-9.6,0.2-14.5-0.3c-11.4-1.2-14.6-10.5-13.8-17.8c1-9,7-14.2,17.1-14.5
		c8.9-0.3,17.8-0.1,26.7-0.1c1.1,0,1.3,0.4,1.3,1.4c-0.1,2.8-0.1,5.6,0,8.4c0.1,1.4-0.4,1.8-1.8,1.8c-8.4-0.1-16.7,0-25.1,0
		c-0.9,0-1.9,0-2.8,0.1c-2.6,0.3-4,1.8-4.1,4.5c-0.1,2.8,1.1,4.5,3.6,5c1.6,0.3,3.3,0.3,5,0.4c4.7,0.1,9.5-0.2,14.2,0.3
		c11.1,1.3,13.9,10.6,13.3,17.5c-0.8,8.7-6.7,14.1-15.4,14.6C137.7,62.3,131.5,62,126.3,62.1z"/>
	<path class="st0" d="M206,62c-1.9,0-4.4,0.7-5.6-0.2c-1.3-0.9-1.4-3.4-2-5.2c-3.8-11.9-7.7-23.8-11.5-35.7
		c-0.3-0.9-0.4-1.9-1.3-2.4c-1.3-0.8-2.6-0.1-3.2,1.8c-2.7,8.2-5.3,16.4-8,24.7c-1.7,5.2-3.4,10.4-5,15.6c-0.4,1.3-1,1.7-2.4,1.7
		c-2.9-0.1-5.8-0.1-8.6,0c-1.3,0-1.6-0.2-1.2-1.5c4.9-15,9.6-30,14.5-44.9c2-6.1,6.3-8.9,12.7-8.9c6.7,0,10.8,2.8,12.9,9
		c4.9,15,9.7,30,14.5,44.9c0.5,1.4,0,1.5-1.2,1.5c-1.5-0.1-3.1,0-4.6,0C206,62.1,206,62,206,62z"/>
</g>
</svg>
