<?xml version="1.0" encoding="utf-8"?>
<!-- Generator: Adobe Illustrator 25.2.0, SVG Export Plug-In . SVG Version: 6.00 Build 0)  -->
<svg version="1.1" xmlns="http://www.w3.org/2000/svg" xmlns:xlink="http://www.w3.org/1999/xlink" x="0px" y="0px"
	 viewBox="0 0 2000 2000" style="enable-background:new 0 0 2000 2000;" xml:space="preserve">
<style type="text/css">
	.st0{display:none;}
	.st1{display:inline;fill:#3A3D42;}
	.st2{fill:#495172;}
	.st3{opacity:0.9804;}
	.st4{fill:#4C5070;}
	.st5{opacity:0.9608;}
	.st6{fill:#4F4F6E;}
	.st7{opacity:0.9412;}
	.st8{fill:#524E6B;}
	.st9{opacity:0.9216;}
	.st10{fill:#554D69;}
	.st11{opacity:0.902;}
	.st12{fill:#584C67;}
	.st13{opacity:0.8824;}
	.st14{fill:#5A4B65;}
	.st15{opacity:0.8627;}
	.st16{fill:#5D4962;}
	.st17{opacity:0.8431;}
	.st18{fill:#604860;}
	.st19{opacity:0.8235;}
	.st20{fill:#63475E;}
	.st21{opacity:0.8039;}
	.st22{fill:#66465C;}
	.st23{opacity:0.7843;}
	.st24{fill:#694559;}
	.st25{opacity:0.7647;}
	.st26{fill:#6C4457;}
	.st27{opacity:0.7451;}
	.st28{fill:#6F4355;}
	.st29{opacity:0.7255;}
	.st30{fill:#724253;}
	.st31{opacity:0.7059;}
	.st32{fill:#754150;}
	.st33{opacity:0.6863;}
	.st34{fill:#77404E;}
	.st35{opacity:0.6667;}
	.st36{fill:#7A3F4C;}
	.st37{opacity:0.6471;}
	.st38{fill:#7D3E4A;}
	.st39{opacity:0.6275;}
	.st40{fill:#803D48;}
	.st41{opacity:0.6078;}
	.st42{fill:#833B45;}
	.st43{opacity:0.5882;}
	.st44{fill:#863A43;}
	.st45{opacity:0.5686;}
	.st46{fill:#893941;}
	.st47{opacity:0.549;}
	.st48{fill:#8C383F;}
	.st49{opacity:0.5294;}
	.st50{fill:#8F373C;}
	.st51{opacity:0.5098;}
	.st52{fill:#92363A;}
	.st53{opacity:0.4902;}
	.st54{fill:#943538;}
	.st55{opacity:0.4706;}
	.st56{fill:#973436;}
	.st57{opacity:0.451;}
	.st58{fill:#9A3333;}
	.st59{opacity:0.4314;}
	.st60{fill:#9D3231;}
	.st61{opacity:0.4118;}
	.st62{fill:#A0312F;}
	.st63{opacity:0.3922;}
	.st64{fill:#A3302D;}
	.st65{opacity:0.3725;}
	.st66{fill:#A62E2A;}
	.st67{opacity:0.3529;}
	.st68{fill:#A92D28;}
	.st69{opacity:0.3333;}
	.st70{fill:#AC2C26;}
	.st71{opacity:0.3137;}
	.st72{fill:#AF2B24;}
	.st73{opacity:0.2941;}
	.st74{fill:#B12A22;}
	.st75{opacity:0.2745;}
	.st76{fill:#B4291F;}
	.st77{opacity:0.2549;}
	.st78{fill:#B7281D;}
	.st79{opacity:0.2353;}
	.st80{fill:#BA271B;}
	.st81{opacity:0.2157;}
	.st82{fill:#BD2619;}
	.st83{opacity:0.1961;}
	.st84{fill:#C02516;}
	.st85{opacity:0.1765;}
	.st86{fill:#C32414;}
	.st87{opacity:0.1569;}
	.st88{fill:#C62312;}
	.st89{opacity:0.1373;}
	.st90{fill:#C92210;}
	.st91{opacity:0.1176;}
	.st92{fill:#CC200D;}
	.st93{opacity:9.803922e-02;}
	.st94{fill:#CE1F0B;}
	.st95{opacity:7.843138e-02;}
	.st96{fill:#D11E09;}
	.st97{opacity:5.882353e-02;}
	.st98{fill:#D41D07;}
	.st99{opacity:3.921569e-02;}
	.st100{fill:#D71C04;}
	.st101{opacity:1.960784e-02;}
	.st102{fill:#DA1B02;}
	.st103{opacity:0;}
	.st104{fill:#DD1A00;}
</style>
<g id="Layer_2" class="st0">
	<rect x="-30" y="-17" class="st1" width="2057" height="2040"/>
</g>
<g id="Layer_1">
	<g>
		<g>
			<path class="st2" d="M998.3,48.1c15.7,0,30.7,1,44.5,2.9c135.7,19.1,263.9,67.3,380.9,143.3c54.5,35.4,106.7,76.9,155.1,123.5
				c46.6,44.8,90.3,94.8,129.8,148.6c38.3,52.1,73,108.2,103.2,166.6c29.5,57.2,54.8,116.9,75.3,177.6c20.2,60,35.7,121,46.1,181.4
				c10.4,60.4,15.7,120.3,15.7,178c0,113.4-26.1,217.6-77.7,309.9c-54.7,97.9-138.3,182.6-248.6,251.8
				c-57.7,36.2-123.5,68.7-195.7,96.5c-74.6,28.7-157.8,53.2-247.3,72.8c-92.4,20.2-193.9,35.6-301.7,45.9
				c-111.3,10.6-232.1,16-359.1,16c-53.6,0-109.4-1-165.8-2.9c-32.5-1.1-58-5.3-76-12.6c-16.8-6.8-27.4-16.5-31.4-28.8
				c-24-73.7,182.1-234.5,363.9-376.4c75-58.5,145.8-113.8,197-160c57.7-52.1,82.2-85.3,77-104.5c-2.6-9.5-12.5-15.4-29.6-17.7
				c-289.5-39.2-504.7-105-639.4-195.7c-60.6-40.7-105.2-86.9-132.7-137.1c-25.6-46.7-36.7-97.6-33.1-151.4
				c2.8-41.5,14.4-85.1,34.5-129.7c19-42,45.7-85.3,79.4-128.7c62.5-80.4,149.7-161.4,251.9-234.2c96.9-69,202.9-127.7,306.4-169.8
				C826.4,70.7,922.3,48.1,998.3,48.1L998.3,48.1 M998.3,47.1C494.8,47.1-782.7,1039.4,854,1261c229,31-971,684.2-501,700
				c57,1.9,112.3,2.9,165.9,2.9c1036.9,0,1431.1-352.2,1431.1-793.9c0-464.5-339-1040-907-1120C1028.9,48,1014,47,998.3,47.1
				L998.3,47.1z"/>
		</g>
		<g class="st3">
			<path class="st4" d="M983.4,71.7v1c15.4,0,30.2,1,43.8,2.9c134.1,19,262.3,66.3,381.2,140.5c55.5,34.7,108.9,75.3,158.7,120.7
				c48.1,44,93.3,92.8,134.2,145.2c39.9,51.1,76,105.9,107.2,162.8c30.8,56.2,57,114.5,77.9,173.5c20.8,58.9,36.4,118.6,46.1,177.3
				c9.9,59.4,13.9,118,12,174.1c-3.7,106.9-31.1,205.4-81.4,292.8c-54.2,94.1-135.3,175.7-241,242.5c-55.8,35.3-119.4,66.9-189,94
				c-72.2,28.2-152.7,52.2-239.2,71.3c-89.7,19.9-188.2,35.1-292.9,45.3c-108.4,10.5-226.1,15.8-349.9,15.8c-53.7,0-109.7-1-166.3-3
				c-32.6-1.2-58.1-5.5-75.9-12.8c-16.7-6.8-27.1-16.3-30.9-28.3c-9.8-31.1,22.7-80.4,99.4-150.8c67.7-62.2,159.2-131.5,247.8-198.5
				c72-54.5,139.9-106,189.1-149.2c55.5-48.8,79.2-80.1,74.3-98.6c-2.5-9.4-12.5-15.4-29.9-17.8c-286.2-38.8-498.8-104.5-632-195.1
				c-59.8-40.7-103.9-86.8-131-137c-25.2-46.7-36.1-97.6-32.5-151.3c2.8-40.9,14-84,33.5-127.9c18.4-41.5,44.2-84.1,76.8-126.8
				c60.5-79.2,144.7-158.9,243.5-230.5C511,236,613.6,178.3,713.9,136.9C816,94.9,909.2,72.7,983.4,72.7V71.7 M983.4,71.7
				c-494.2,0-1731,983.7-124.7,1201.7c226.6,31.4-935.5,638.3-473.9,656c57.3,2,112.7,3,166.3,3c1012.5,0,1380.1-350.1,1394.3-762.8
				c15.7-454.7-359-1015.7-918.1-1095C1013.5,72.6,998.8,71.7,983.4,71.7L983.4,71.7z"/>
		</g>
		<g class="st5">
			<path class="st6" d="M968.4,97.2c15.2,0,29.7,1,43.1,2.9c67.1,9.6,134,26.5,199.1,50.3c62.4,22.8,123.8,52.3,182.5,87.5
				c56.7,34,111.3,73.7,162.4,118c49.8,43.1,96.4,90.9,138.7,141.8c41.6,50.2,79.1,103.7,111.4,158.9
				c32.2,55.1,59.3,112.1,80.5,169.4c21.4,57.8,36.9,116.1,46,173.1c9.3,58.3,12,115.5,7.9,170.1c-7.4,100.5-35.8,193.3-84.4,275.8
				c-53.3,90.5-131.1,169-231.4,233.4c-229.5,147.4-575.4,222.1-1028,222.1c-57.8,0-118.1-1.2-179.3-3.7c-32.7-1.3-58.2-5.5-76-12.6
				c-16.6-6.6-26.8-15.9-30.4-27.5c-8.9-29.2,22.1-74.9,94.9-139.8c64.3-57.3,151.3-121.1,235.4-182.8
				c69-50.6,134.1-98.4,181.4-138.7c53.4-45.5,76.2-75,71.7-92.7c-2.4-9.5-12.3-15.3-30.2-17.8c-282.9-39.3-493-105.4-624.5-196.4
				c-59-40.8-102.4-87.1-129.1-137.4c-24.8-46.7-35.5-97.6-31.8-151.3c2.8-40.3,13.7-82.7,32.6-125.9
				c17.8-40.8,42.7-82.7,74.2-124.5c58.4-77.8,139.6-155.9,235-225.9c90.5-66.5,189.7-123,286.7-163.3
				C805.4,119,895.9,97.2,968.4,97.2L968.4,97.2 M968.3,96.2c-485,0.1-1680,970.7-104.9,1189.5c224.2,31.2-900.1,593.9-446.8,612
				c62.1,2.5,121.8,3.7,179.3,3.7c978,0,1316.5-348.6,1344.8-732.3c32.8-444.2-378.9-991.5-929.2-1070.1
				C998,97.2,983.5,96.2,968.3,96.2L968.3,96.2z"/>
		</g>
		<g class="st7">
			<path class="st8" d="M953.5,121.8c14.9,0,29.1,1,42.3,2.9c66.1,9.5,132.6,26.1,197.8,49.5c62.7,22.4,124.8,51.3,184.4,85.7
				c57.9,33.4,113.8,72.2,166.3,115.4c51.4,42.3,99.7,89,143.3,138.6c43.4,49.2,82.2,101.5,115.6,155.2
				c33.5,54.1,61.5,109.6,83,165.2c21.9,56.7,37.3,113.4,45.6,168.8c8.6,57,9.7,112.7,3.4,165.7c-11.3,94.9-40.8,182.4-87.8,260.1
				c-25.5,42.2-56.6,82.1-92.4,118.5c-37.7,38.4-81.6,73.9-130.5,105.6c-51.4,33.3-109.5,63.2-172.9,88.9
				c-66.5,26.9-140.4,49.9-219.7,68.3c-83,19.2-174.1,34-270.8,43.8c-100.9,10.3-210.7,15.5-326.3,15.5c-59.9,0-122.6-1.4-186.4-4.2
				c-32.8-1.4-58.4-5.7-76-12.6c-16.5-6.5-26.5-15.5-29.8-26.8c-8-27.3,21.6-69.5,90.5-128.9c61-52.5,143.4-110.8,223.2-167.2
				c65.9-46.6,128.2-90.7,173.5-128c51.2-42.2,73.1-69.8,69-86.7c-2.3-9.4-12.3-15.3-30.6-17.9c-279.6-39.4-487.3-105.6-617.1-196.9
				c-58.2-40.9-101-87.2-127.3-137.6C99.5,915.9,89,865,92.8,811.4c2.8-39.8,13.4-81.5,31.6-123.9c17.2-40.1,41.2-81.3,71.5-122.4
				c56.3-76.4,134.6-153.1,226.5-221.7C602.6,208.8,811,121.9,953.5,121.8L953.5,121.8 M953.4,120.8
				c-475.8,0.1-1629.5,959.9-85.3,1177.3C1090,1329.4,3.5,1847,448.5,1866.2c64.7,2.8,126.8,4.2,186.4,4.2
				c948,0,1258.8-344,1301.3-701.6c51.5-432.8-398.9-967.2-940.3-1045.1C982.5,121.8,968.3,120.8,953.4,120.8L953.4,120.8z"/>
		</g>
		<g class="st9">
			<path class="st10" d="M938.5,145.4v1c14.6,0,28.6,1,41.7,2.8c76.9,11.1,154.9,31.9,231.8,61.7c73.9,28.6,146.7,65.5,216.2,109.6
				c67.8,43,131.9,92.4,190.5,146.8c58.2,54.1,110.2,112.4,154.6,173.4c30.7,42.2,57.8,85.7,80.3,129.3
				c23,44.4,41.6,89.2,55.2,133.3c28.7,92.6,36.1,181.7,21.9,264.8c-33,194.1-135.8,348.9-305.6,459.9
				c-49.2,32.2-104.8,61.1-165.2,85.9c-63.7,26.1-134.4,48.5-210.3,66.3c-79.7,18.8-167.2,33.1-260.2,42.7
				c-97.3,10-203.2,15.1-314.9,15.1c-62.2,0-127.5-1.6-194-4.7c-33-1.5-58.6-5.8-76.2-12.6c-16.4-6.3-26.2-15.1-29.3-26
				c-7.2-25.4,21-64,86.2-117.9c57.7-47.7,135.6-100.6,210.9-151.7c62.9-42.7,122.3-82.9,165.6-117.3c49-38.9,70.1-64.5,66.4-80.7
				c-2.2-9.3-12.3-15.2-31-17.9c-276.4-39.4-481.6-105.9-609.8-197.5c-57.4-41-99.6-87.4-125.5-137.8c-24-46.8-34.2-97.8-30.4-151.4
				c2.8-39.2,13.1-80.2,30.6-121.9c16.6-39.4,39.8-79.9,68.9-120.2c54.3-75.1,129.7-150.3,218.1-217.4
				c84.2-63.9,176.5-118.1,267.1-156.7c92.3-39.3,177.5-60.1,246.4-60.1L938.5,145.4 M938.4,145.4
				c-466.5,0-1579.1,949.1-65.6,1165.1c219.5,31.3-829.1,503.7-392.5,524.1c67.7,3.2,132.3,4.7,194.1,4.7
				c917.2,0,1200.5-337.1,1257.3-670.9c71.5-420.3-418.8-943-951.4-1020.2C967,146.4,953,145.4,938.4,145.4L938.4,145.4z"/>
		</g>
		<g class="st11">
			<path class="st12" d="M923.5,171c14.3,0,28.1,0.9,40.9,2.8c63.9,9.3,128.4,25.3,191.7,47.6c60.9,21.4,121.4,48.8,179.7,81.5
				c56.6,31.6,111.6,68.4,163.6,109.4c50.8,40,99,84.2,143.2,131.3c43.7,46.6,83.5,96.1,118.5,147.2c35,51.2,65.1,104.1,89.6,157.2
				c24.8,53.8,43.7,108,56.4,161.1c13,54.3,19.3,107.8,19,158.8c-31.9,67.5-70.5,146-124.5,222.5c-58.5,82.9-126,150.3-206.3,206.1
				c-46,32-97.2,60.6-152.1,85c-59,26.3-124.5,48.7-194.5,66.6c-74.5,19.1-156.7,33.7-244.2,43.5c-92.4,10.3-193.8,15.6-301.2,15.6
				c-60.9,0-125.3-1.7-191.1-5c-33.1-1.7-58.8-5.9-76.4-12.5c-16.3-6.2-25.9-14.6-28.7-25.1c-6.3-23.5,20.5-58.5,81.8-107
				c54.4-43,127.8-90.5,198.8-136.4c59.9-38.7,116.4-75.3,157.8-106.7c46.8-35.6,67.1-59.2,63.7-74.6c-2-9.2-12.3-15.1-31.5-17.8
				c-273.2-39.5-475.9-106.2-602.6-198.1c-56.6-41.1-98.2-87.6-123.7-138.1c-23.6-46.9-33.6-97.9-29.7-151.5
				c2.8-38.6,12.7-78.9,29.6-119.9c16-38.8,38.3-78.5,66.3-118.1c52.2-73.7,124.7-147.4,209.7-213.1c81-62.6,170-115.6,257.4-153.3
				C773.8,191.4,856.4,171,923.5,171L923.5,171 M923.5,170c-457.3,0.1-1528.6,938.5-45.9,1152.9c217.1,31.4-793.7,458.5-365.4,480.1
				c67.1,3.4,130.7,5,191.2,5c886.1,0,1086.1-348.9,1223.8-640c2.9-416.8-438.8-918.7-962.5-995.2C951.5,170.9,937.8,170,923.5,170
				L923.5,170z"/>
		</g>
		<g class="st13">
			<path class="st14" d="M908.5,194.6v1c14.1,0,27.6,0.9,40.2,2.8c62.9,9.2,126.7,25,189.6,46.7c60.7,20.9,121.2,47.7,179.9,79.5
				c57,30.9,112.6,66.7,165.3,106.5c51.7,39.1,100.8,82.1,145.8,127.8c44.8,45.4,85.7,93.7,121.6,143.3
				c36.1,50,67.2,101.5,92.4,153.1c25.7,52.6,45.3,105.4,58.5,157.1c13.5,53,20.1,105.2,19.7,155c-9.3,14.8-18.5,29.6-28.1,45.2
				c-39.7,64.2-80.7,130.7-133.3,195.4c-59.8,73.6-125.3,133-200.4,181.7c-43.6,28.3-91.5,53.5-142.5,75.1
				c-54.9,23.3-115.4,43.1-179.8,58.9c-68.6,16.9-144,29.8-224,38.5c-84.6,9.1-177.1,13.8-275,13.8c-61.8,0-127.2-1.8-194.4-5.5
				c-33.4-1.8-59.2-6-76.6-12.5c-16.2-6-25.6-14.1-28.2-24.1c-5.4-21.5,19.9-52.9,77.5-96.1c51.1-38.3,120-80.5,186.6-121.3
				c56.8-34.8,110.5-67.6,149.9-96c44.6-32.2,64.1-53.9,61.1-68.3c-1.9-9.1-12.3-14.9-31.9-17.8
				c-270.1-39.6-470.4-106.5-595.5-198.8c-55.9-41.2-96.9-87.8-121.9-138.5c-23.2-47-33-98-29-151.7c2.8-38,12.4-77.6,28.7-117.9
				c15.4-38.1,36.8-77,63.7-115.8c50.2-72.3,119.8-144.5,201.4-208.7c77.8-61.2,163.5-113.1,247.7-149.9
				c85.9-37.5,165.8-57.4,231-57.4L908.5,194.6 M908.5,194.6c-448,0-1478.2,927.8-26.3,1140.7c214.7,31.5-758.2,413.4-338.3,436.1
				c68.5,3.7,133.3,5.5,194.5,5.5c856.3,0,1019.3-347.7,1184-609.3c3.5-407.2-458.7-894.5-973.6-970.2
				C936.1,195.5,922.6,194.6,908.5,194.6L908.5,194.6z"/>
		</g>
		<g class="st15">
			<path class="st16" d="M893.6,220.2c13.8,0,27,0.9,39.4,2.8c61.8,9.2,124.9,24.6,187.6,45.8c60.5,20.5,121,46.6,180,77.5
				c57.4,30.1,113.6,65,167,103.7c52.6,38.1,102.5,79.9,148.5,124.3c45.9,44.3,87.8,91.2,124.6,139.4c37.2,48.7,69.3,98.9,95.3,149
				c26.6,51.3,47,102.8,60.5,153c14,51.8,20.8,102.6,20.3,151.1c-25.8,31.3-50,64.1-75.7,98.9c-40.8,55.3-83.1,112.5-135,167.8
				c-58.9,62.6-121.7,113.1-192,154.3c-40.8,23.9-85.2,45.2-131.9,63.4c-50.4,19.6-105.4,36.3-163.6,49.6
				c-62,14.2-129.6,25.1-201.1,32.4c-75.5,7.7-157.7,11.6-244.4,11.6c-62.4,0-128.8-2-197.2-6c-33.6-2-59.5-6.1-76.9-12.4
				c-16.1-5.8-25.3-13.5-27.6-23c-4.6-19.4,19.3-47.3,73.1-85.3c47.8-33.7,112.2-70.7,174.5-106.4c53.8-30.8,104.6-60,142-85.4
				c42.5-28.8,61.1-48.6,58.5-62c-1.7-8.9-12.3-14.7-32.4-17.7c-266.9-39.7-464.9-106.8-588.4-199.6c-55.1-41.4-95.5-88.1-120.1-139
				c-22.8-47.1-32.3-98.2-28.4-151.9c2.8-37.3,12.1-76.3,27.7-115.8c14.8-37.4,35.4-75.6,61.2-113.6
				C287.2,556,354,485.4,432.2,422.7c74.7-59.9,157-110.5,238-146.4C752.9,239.6,830.1,220.2,893.6,220.2L893.6,220.2 M893.6,219.2
				c-438.7,0.1-1427.7,917.2-6.6,1128.5c212.3,31.6-722.8,368.2-311.2,392.1c69.9,4.1,135.5,6,197.2,6
				c826.5,0,953.3-346.4,1144.9-578.6C1922,769.6,1439.2,297,933.2,222C920.6,220.1,907.4,219.2,893.6,219.2L893.6,219.2z"/>
		</g>
		<g class="st17">
			<path class="st18" d="M878.7,244.8c13.5,0,26.5,0.9,38.7,2.7c60.8,9.1,123.2,24.2,185.6,44.9c60.3,20,120.9,45.5,180.1,75.5
				c57.9,29.4,114.6,63.3,168.7,100.9c53.5,37.1,104.3,77.8,151.2,120.9c47,43.2,89.9,88.8,127.7,135.6
				c38.3,47.5,71.3,96.2,98.1,144.9c27.5,50,48.6,100.1,62.6,149c14.5,50.5,21.5,100,21,147.2c-43.2,40.2-81,85.5-121,133.5
				c-40.3,48.2-81.9,98.1-131.8,145.9c-56.5,54.1-115.7,97.7-181.1,133.2c-37.8,20.6-78.7,38.9-121.6,54.6
				c-46.1,16.8-96.3,31.2-149.1,42.6c-56.1,12.2-117.2,21.5-181.6,27.7c-67.9,6.6-141.6,9.9-219.1,9.9c-62.9,0-129.9-2.2-199.4-6.5
				c-33.9-2.1-60-6.2-77.3-12.3c-16-5.6-25-12.9-26.9-21.7c-3.7-17.3,18.8-41.7,68.8-74.5c44.5-29.2,104.5-61,162.5-91.8
				c50.7-26.9,98.7-52.4,134.1-74.8c40.3-25.5,58.1-43.1,55.9-55.6c-1.5-8.6-12.3-14.4-33-17.5c-263.8-39.8-459.4-107.2-581.4-200.5
				c-54.3-41.5-94.2-88.5-118.4-139.5c-22.4-47.2-31.7-98.4-27.7-152.3c2.7-36.7,11.7-74.9,26.7-113.6
				c14.2-36.7,33.9-74.1,58.6-111.3c46.1-69.5,110-138.5,184.9-199.7c71.6-58.5,150.5-107.9,228.4-142.9
				C742.4,263.7,817,244.8,878.7,244.8L878.7,244.8 M878.6,243.8c-429.4,0-1377.3,906.7,13,1116.3
				c209.9,31.7-687.4,323.1-284.1,348.2c71,4.4,137.4,6.5,199.5,6.5c796.9,0,888-344.8,1106.3-547.9
				c4.7-388.2-498.6-846-995.8-920.3C905.1,244.7,892.1,243.8,878.6,243.8L878.6,243.8z"/>
		</g>
		<g class="st19">
			<path class="st20" d="M863.8,269.4c13.2,0,26,0.9,37.9,2.7c59.8,9,121.5,23.8,183.5,44c60.1,19.6,120.8,44.3,180.3,73.6
				c58.3,28.6,115.6,61.6,170.4,98c54.3,36.1,106.1,75.6,153.9,117.4c48.1,42,92.1,86.3,130.7,131.7c39.4,46.2,73.4,93.6,101,140.8
				c28.4,48.7,50.2,97.4,64.6,144.9c15,49.2,22.3,97.4,21.7,143.3c-61.3,43.7-110.5,97.6-162.6,154.7
				c-154.8,169.7-330.2,362.1-904.6,362.1c-63.1,0-130.7-2.4-201.1-7c-65.7-4.4-100.7-15.2-104-32.3c-2.9-15.1,18.1-36,64.4-63.7
				c41.2-24.7,96.8-51.6,150.5-77.5c47.7-23.1,92.8-44.9,126.3-64.3c38.2-22.1,55.1-37.7,53.4-49.1c-1.3-8.3-12.2-13.9-33.6-17.2
				c-260.8-39.9-454.1-107.7-574.5-201.4c-53.6-41.7-92.8-88.9-116.6-140.1c-22-47.4-31.1-98.7-27-152.6
				c2.7-36,11.4-73.5,25.8-111.4c13.6-35.9,32.5-72.6,56-108.9c44.1-68,105.2-135.5,176.7-195.1c68.5-57.1,144.1-105.3,218.8-139.3
				C731.9,287.8,803.9,269.4,863.8,269.4L863.8,269.4 M863.7,268.4c-420.2,0.1-1326.8,896.2,32.7,1104.1
				c207.6,31.7-651.9,277.9-256.9,304.2c72.1,4.8,138.9,7,201.1,7c767.3,0,823.3-343.2,1068.2-517.3
				c5.3-378.6-518.6-821.7-1006.9-895.4C889.6,269.3,876.9,268.4,863.7,268.4L863.7,268.4z"/>
		</g>
		<g class="st21">
			<path class="st22" d="M848.8,293v1c12.9,0,25.5,0.9,37.2,2.7c58.8,8.9,119.8,23.5,181.5,43.2c59.9,19.1,120.6,43.2,180.4,71.6
				c117.5,55.8,231.1,128.1,328.6,209.1c49.2,40.9,94.2,83.9,133.8,127.8c40.6,45,75.5,91,103.8,136.8
				c29.3,47.4,51.8,94.8,66.7,140.9c15.5,47.8,23,94.7,22.3,139.5c-80.1,43-138.3,103-199.9,166.4c-36.5,37.6-74.3,76.5-118.4,113.6
				c-49.8,41.9-101,75.5-156.6,102.8c-67.3,33.1-141.4,57.5-226.5,74.6c-46.4,9.3-96.7,16.5-149.4,21.2c-55.6,5-115.7,7.6-178.8,7.6
				c-63.2,0-131.2-2.6-202.2-7.6c-66.3-4.7-101.2-14.9-103.9-30.4c-2.2-12.9,17.4-30.3,59.9-53c38-20.3,89.1-42.3,138.5-63.6
				c44.8-19.3,87-37.4,118.6-53.9c36-18.7,52.2-32.2,50.9-42.5c-1-7.9-12.2-13.4-34.2-16.8c-257.8-40-448.8-108.1-567.7-202.6
				c-52.8-41.9-91.5-89.3-114.9-140.8c-21.6-47.5-30.5-99-26.3-153.1c2.7-35.4,11.1-72.1,24.8-109.2c13-35.2,31-71,53.5-106.6
				c42.1-66.5,100.4-132.4,168.5-190.4c65.4-55.7,137.7-102.6,209.2-135.7c73.1-33.8,142.4-51.7,200.4-51.7L848.8,293 M848.7,293
				c-410.9,0.1-1276.4,885.8,52.3,1091.9c205.2,31.8-616.5,232.8-229.8,260.2c72.9,5.2,140.1,7.6,202.3,7.6
				c737.9,0,759.3-341.3,1030.6-486.6c5.9-369.1-538.5-797.5-1018-870.4C874.2,293.9,861.7,293,848.7,293L848.7,293z"/>
		</g>
		<g class="st23">
			<path class="st24" d="M833.8,318.6c12.7,0,25,0.9,36.5,2.6c57.7,8.9,118.1,23.1,179.4,42.3c59.7,18.7,120.5,42.1,180.5,69.6
				c118.8,54.4,233.9,124.6,333,202.8c50.3,39.7,96.3,81.4,136.9,123.9c41.7,43.7,77.6,88.4,106.7,132.7
				c30.2,46.1,53.4,92.1,68.7,136.8c16,46.5,23.7,92.1,23,135.6c-99.4,39.1-164.3,103.1-232.9,170.9
				c-69.1,68.1-140.5,138.6-254.4,192.9c-61.7,29.4-129.4,51.1-207,66.3c-86.6,17-187,25.6-298.2,25.6c-63,0-131.3-2.7-202.9-8.1
				c-66.9-5.1-101.8-14.5-103.8-28.1c-1.5-10.6,16.6-24.5,55.3-42.5c34.7-16.1,81.4-33.4,126.5-50.1c41.8-15.5,81.3-30.1,111.1-43.5
				c34-15.4,49.4-26.7,48.5-35.7c-0.7-7.4-12.2-12.7-34.9-16.3c-254.9-40.1-443.6-108.7-561.1-203.8
				c-52.1-42.2-90.2-89.8-113.2-141.6c-21.2-47.7-29.8-99.4-25.6-153.6c2.7-34.7,10.7-70.7,23.9-106.9c12.5-34.4,29.6-69.5,51-104.1
				c40.1-65,95.6-129.2,160.4-185.6c62.3-54.2,131.4-99.9,199.8-132C711,335.9,777.7,318.6,833.8,318.6L833.8,318.6 M833.8,317.6
				c-401.6,0-1226.1,875.4,72,1079.7c202.8,31.9-581.1,187.6-202.7,216.2c73.6,5.6,141,8.2,203,8.2c708.4,0,696-339.4,993.5-456
				C1906,806.1,1341,392.4,870.5,320.3C858.7,318.5,846.5,317.6,833.8,317.6L833.8,317.6z"/>
		</g>
		<g class="st25">
			<path class="st26" d="M818.9,343.2c12.4,0,24.4,0.9,35.7,2.6c56.7,8.8,116.4,22.7,177.4,41.4c59.6,18.2,120.4,41,180.7,67.7
				c120.1,53.1,236.7,121,337.4,196.5c51.4,38.6,98.5,79,139.9,120c42.8,42.4,79.6,85.7,109.5,128.6c31.2,44.7,55,89.4,70.8,132.8
				c16.5,45.2,24.4,89.5,23.7,131.7c-119.2,32.6-188.5,99.3-261.9,169.8c-63.7,61.2-129.5,124.4-233.7,173.1
				c-56.4,26.4-118.2,45.8-188.9,59.4c-78.9,15.2-170.2,22.9-271.4,22.9c-62.7,0-131-2.9-203-8.7c-35.5-2.9-62.3-6.6-79.5-11.2
				c-15.5-4.1-23.7-8.9-24.2-14.2c-0.9-8.2,16.1-19,50.5-32.1c31.4-12,73.6-24.7,114.5-37c39-11.7,75.9-22.8,103.8-33.3
				c32.5-12.1,46.7-21.1,46.2-28.9c-0.5-6.8-11.8-11.7-35.7-15.5c-252-40.2-438.5-109.3-554.6-205.2
				c-51.4-42.5-88.9-90.4-111.5-142.4c-20.8-48-29.2-99.9-24.9-154.2c2.7-34,10.4-69.2,22.9-104.6c11.9-33.7,28.2-67.8,48.5-101.6
				c38.1-63.4,90.8-125.9,152.4-180.7C566,411,709.8,343.2,818.9,343.2L818.9,343.2 M818.9,342.2
				c-392.3,0.1-1175.6,865.1,91.6,1067.5c200.4,32-545.7,142.5-175.6,172.2c74.2,6,141.6,8.7,203.1,8.7
				c679.1,0,633.3-337.2,957-425.4c7.1-350-578.4-749-1040.2-820.5C843.2,343,831.3,342.2,818.9,342.2L818.9,342.2z"/>
		</g>
		<g class="st27">
			<path class="st28" d="M804,367.8c12.1,0,23.9,0.9,35,2.6c110.4,17.3,233.6,54,356.2,106.2c121.4,51.7,239.6,117.5,341.8,190.2
				c52.6,37.4,100.7,76.5,143,116.1c43.9,41.1,81.7,83.1,112.4,124.5c32.1,43.4,56.6,86.7,72.8,128.7c17,43.8,25.2,86.8,24.4,127.8
				c-139.3,24-211.1,92.2-287.2,164.4c-58.2,55.2-118.3,112.3-213.3,156.1c-51.4,23.7-107.7,41.2-172.2,53.5
				c-71.9,13.7-155.1,20.6-247.3,20.6c-62.2,0-130.4-3.1-202.7-9.3c-85-7.3-103.4-16.1-103.8-22.2c-0.4-5.8,14.9-13.2,45.3-21.9
				c27.9-8,65.7-16.4,102.2-24.5c88.2-19.6,141.7-32.4,141.3-45.1c-0.2-5.9-11.8-10.5-36.5-14.5
				c-249.1-40.4-433.6-109.9-548.2-206.7c-50.6-42.8-87.6-91-109.8-143.4c-20.5-48.3-28.6-100.4-24.2-154.9
				c2.7-33.3,10.1-67.6,22-102.2c11.3-32.8,26.8-66.2,46-99c36.2-61.8,86.1-122.6,144.4-175.7c56.2-51.2,118.8-94.2,181-124.3
				C690.2,384.1,751.5,367.8,804,367.8L804,367.8 M803.9,366.8c-383,0-1125.3,854.9,111.2,1055.3c198.1,32.1-510.4,97.3-148.5,128.3
				c74.7,6.4,141.8,9.3,202.8,9.3c649.9,0,571.3-334.9,920.9-394.8C1898,824.4,1292,440.2,839.1,369.4
				C827.8,367.6,816,366.8,803.9,366.8L803.9,366.8z"/>
		</g>
		<g class="st29">
			<path class="st30" d="M789.1,392.4c11.8,0,23.3,0.9,34.2,2.6c108.8,17.2,231.3,52.9,354.3,103.4
				c122.9,50.4,242.5,114,346.1,183.9c53.7,36.2,102.8,74,146,112.3c45,39.9,83.8,80.4,115.2,120.5c33,42.1,58.2,84,74.9,124.7
				c17.5,42.5,25.9,84.2,25,123.9c-159.7,13.7-232.2,82.6-308.9,155.5c-52.6,50-107.1,101.8-193.4,141.5
				c-46.7,21.5-97.9,37.4-156.6,48.4c-65.5,12.4-141.3,18.6-225.5,18.6c-61.5,0-129.4-3.3-201.8-9.9c-36.4-3.3-63.6-6.7-80.8-10
				c-20.8-4-23.1-7.2-23.1-8.3c0-0.7,1-2.8,10.2-5.7c6.6-2,16-4.2,29-6.4c24.1-4.3,57-8.5,88.9-12.7c32.8-4.2,66.6-8.6,91.8-13.1
				c37.7-6.7,42.8-11.3,42.9-14.9c0.1-3.3-4.1-7.7-37.4-13.2c-246.4-40.5-428.7-110.7-541.9-208.4c-49.9-43.1-86.3-91.7-108.1-144.5
				c-20.1-48.6-28-100.9-23.5-155.6c5.2-64,26.9-129.9,64.6-196c34.3-60.2,81.5-119.2,136.5-170.6c53.2-49.7,112.6-91.3,171.7-120.4
				C679.8,408.2,738.5,392.4,789.1,392.4L789.1,392.4 M789,391.4c-373.7,0.1-1074.8,844.7,130.9,1043.1
				c195.7,32.2-475,52.2-121.4,84.3c74.9,6.8,141.8,9.9,201.9,9.9c620.9,0,509.9-332.5,885.3-364.2C1894,833.6,1267.4,464,823.4,394
				C812.3,392.2,800.8,391.4,789,391.4L789,391.4z"/>
		</g>
		<g class="st31">
			<path class="st32" d="M774.1,416v1c11.5,0,22.8,0.9,33.4,2.5c107.2,17.1,229,51.8,352.4,100.5
				c124.3,49.1,245.5,110.5,350.5,177.6c54.8,35.1,105,71.5,149.1,108.4c46.2,38.6,85.9,77.7,118.1,116.4
				c69.9,83.9,104.4,164.9,102.6,240.7c-180.3,1.9-251.8,70.8-327.5,143.8c-47.2,45.5-96,92.6-174.1,128.7
				c-42.3,19.6-88.8,34-142.1,44.1c-59.6,11.3-128.7,17-205.5,17c-60.6,0-128.1-3.5-200.5-10.5c-35.8-3.5-61.7-6.3-79.2-8.8
				c-18.5-2.6-23.5-4.2-24.8-5c1.6-0.8,8.3-2.1,32-3.1c18.7-0.8,43.3-1.3,69.3-1.8c32.2-0.7,65.4-1.3,91-2.7
				c40.6-2.1,44.2-5,44.4-7.4c0.1-2-2.6-3.6-9.4-5.5c-6.2-1.8-16-3.8-29-6c-243.7-40.7-424-111.5-535.9-210.4
				c-49.2-43.5-85.1-92.6-106.5-145.8c-19.7-48.9-27.4-101.6-22.8-156.5c5.2-62.5,25.8-126.7,61.2-190.7
				c32.3-58.5,76.9-115.6,128.7-165.3c50.2-48.1,106.4-88.3,162.4-116.3c57.5-28.7,113.5-43.9,162.1-43.9L774.1,416 M774.1,416
				c-364.4,0.1-1024.5,834.6,150.5,1030.9c193.3,32.3-439.7,7-94.2,40.3c75.1,7.2,141.5,10.5,200.6,10.5
				c591.9,0,449.1-329.9,850.2-333.6c8.8-321.4-638.3-676.2-1073.5-745.6C796.8,416.8,785.6,416,774.1,416L774.1,416z"/>
		</g>
		<g class="st33">
			<path class="st34" d="M759.2,441.6c11.3,0,22.3,0.8,32.7,2.5c105.7,17,226.8,50.8,350.4,97.6c125.8,47.7,248.6,107,354.9,171.3
				c56,33.9,107.2,69,152.2,104.5c47.3,37.3,88,75,120.9,112.3c71.8,81.1,107.2,159.5,105.3,232.8c-14.6-0.8-28.9-1.2-42.4-1.2
				c-168.8,0-232.9,63.6-300.8,131c-41.9,41.6-85.2,84.5-155.6,117.6c-38.1,17.9-80.2,31-128.6,40.3
				c-54.1,10.3-117.1,15.5-187.2,15.5c-34.7,0-71.9-1.3-110.8-3.8c-5.6-1.1-12.6-2.3-20.8-3.7c-241.1-40.9-419.4-112.4-530-212.5
				c-48.6-43.9-83.9-93.5-104.9-147.2c-19.3-49.3-26.8-102.3-22.1-157.6c5.1-60.9,24.6-123.2,57.9-185.2
				c30.4-56.7,72.3-112,121-159.8c47.3-46.4,100.3-85.2,153.3-112.1C659,456.2,712.5,441.6,759.2,441.6 M782.8,1448.8
				c15.6,1.4,40.3,3.8,79.2,7.8c30.3,3.1,59.9,5.6,87.9,7.4c7.6,1.4,11.9,2.4,14.3,3.1c-0.1,0-0.3,0-0.4,0
				c-12.4,0-54.5-3.8-112.5-10.2C825.4,1453.9,800.5,1451,782.8,1448.8 M759.2,440.6c-355.1,0-974.2,824.6,170.1,1018.7
				c8.4,1.4,15.3,2.7,20.8,3.7c39.9,2.6,76.7,3.8,110.9,3.8c542.9,0,400.4-304.3,772.2-304.3c13.7,0,28.2,0.4,43.4,1.3
				c9.4-311.8-658.2-652-1084.6-720.6C781.4,441.4,770.4,440.6,759.2,440.6L759.2,440.6z M757.5,1445.8
				c-15.3,0,175.7,22.2,206.4,22.2c7.8,0,5.2-1.4-13.8-5.1c-27.8-1.8-57.1-4.2-87.9-7.4C792.6,1448.5,762.7,1445.8,757.5,1445.8
				L757.5,1445.8z"/>
		</g>
		<g class="st35">
			<path class="st36" d="M744.2,466.2c11,0,21.7,0.8,31.9,2.5c104.2,17,224.7,49.7,348.5,94.8c127.4,46.4,251.7,103.4,359.3,165
				c57.1,32.7,109.3,66.5,155.2,100.6c48.4,35.9,90.1,72.4,123.8,108.3c73.6,78.3,110,154,108,224.9c-32.1-3.6-62.1-5.5-89.2-5.5
				c-152,0-207.9,57.9-267.1,119.2c-36.7,38.1-74.7,77.4-137.8,107.7c-34.1,16.4-72.1,28.5-116,36.9c-49,9.4-106.4,14.2-170.4,14.2
				c-58.4,0-124.5-4-196.5-11.8c-42.3-4.6-72.3-6.9-89.3-6.9c-15.5,0-17.8,1.8-18.1,3.8c-0.4,3,5,7.5,46.6,19.8
				c26.7,7.9,60.8,16.7,88.2,23.8c19.6,5.1,38.3,9.9,46.9,12.6c-6.1-0.7-17.5-2.5-34.3-5.4c-238.6-41.1-415-113.4-524.4-214.9
				c-47.9-44.4-82.7-94.5-103.3-148.8c-19-49.8-26.2-103.1-21.4-158.7c5.1-59.3,23.4-119.7,54.6-179.5
				c28.6-54.9,67.8-108.2,113.4-154.2c44.4-44.7,94.3-82,144.3-107.8C648.7,480.2,699.5,466.2,744.2,466.2 M744.2,465.2
				c-345.8,0-923.8,814.6,189.8,1006.5c23.7,4.1,35.6,5.8,39,5.8c20,0-255.3-60.4-168.1-60.4c16.1,0,44.4,2.1,89.2,6.9
				c75,8.1,139.9,11.8,196.6,11.8c494.7,0,355.6-278.1,691.3-278.1c26.8,0,56.7,1.8,90.2,5.6c10-302.3-678.2-627.7-1095.7-695.7
				C765.9,466,755.2,465.2,744.2,465.2L744.2,465.2z"/>
		</g>
		<g class="st37">
			<path class="st38" d="M729.3,490.8c10.7,0,21.2,0.8,31.2,2.5c102.8,16.9,222.7,48.7,346.6,91.9c129.1,45,254.8,99.9,363.6,158.7
				c58.3,31.5,111.5,64,158.3,96.7c49.6,34.6,92.2,69.7,126.7,104.2c75.5,75.5,112.8,148.5,110.7,217c-50.6-8.4-94-12.4-132.6-12.4
				c-135.9,0-183.8,52.7-234.5,108.5c-31.8,34.9-64.6,71.1-120.7,98.9c-63.9,31.7-148.6,47.1-259,47.1c-57,0-122.1-4.2-193.7-12.4
				c-31.9-3.7-57-5.5-74.6-5.5c-21.7,0-32.4,2.7-33.6,8.4c-1.3,6.1,8.8,14.8,32,27.4c19.5,10.6,45.6,22.5,68.6,32.9
				c16.6,7.6,32.4,14.7,43.6,20.5c6,3.1,10.3,5.5,13.2,7.5c4.2,2.9,4,3.9,4,3.9c0,0-0.4,1-5.6,1c-6.5,0-17.9-1.4-34.7-4.4
				c-122.2-21.4-229.2-51.7-318-90.2c-81.8-35.4-149.4-78.3-200.9-127.4c-47.2-45-81.5-95.6-101.8-150.5
				c-18.6-50.3-25.6-104.1-20.7-159.9c5-57.6,22.3-116,51.3-173.6c26.7-53,63.4-104.3,105.9-148.4
				C540.8,543.9,643.4,490.8,729.3,490.8 M729.3,489.8c-336.6,0-873.5,804.7,209.4,994.3c17.3,3,28.5,4.4,34.9,4.4
				c54.9,0-253.1-101.6-122.2-101.6c16.9,0,41.2,1.7,74.5,5.5c74.7,8.6,138.7,12.4,193.8,12.4c450,0,313.1-254.5,614.2-254.5
				c37.2,0,81.1,3.9,133.6,12.6c10.6-292.8-698.2-603.5-1106.8-670.7C750.4,490.6,740,489.8,729.3,489.8L729.3,489.8z"/>
		</g>
		<g class="st39">
			<path class="st40" d="M714.4,515.4c10.4,0,20.6,0.8,30.4,2.4c101.5,16.9,220.7,47.7,344.7,89.1c130.8,43.7,258.1,96.4,368,152.4
				c59.4,30.3,113.7,61.5,161.4,92.8c50.7,33.3,94.3,67,129.5,100.1c77.4,72.7,115.6,143.1,113.5,209.1
				c-68.9-14.6-125.4-21.7-172.6-21.7c-120.5,0-160.7,48-203.2,98.7c-26.9,32.2-54.8,65.4-104.4,91.1
				c-56.5,29.2-132.8,43.4-233.4,43.4c-55.4,0-119.5-4.4-190.5-13.1c-25.7-3.1-47.1-4.7-63.5-4.7c-27.7,0-42.6,4.4-45.4,13.4
				c-2.6,8.3,4.8,19.7,23.4,35.9c15.8,13.8,37,28.6,57.4,43c28.6,20.1,58.2,40.8,55.8,48.3c-0.7,2.2-4.7,3.3-11.6,3.3
				c-7,0-17.2-1.2-30.3-3.5c-121.1-21.5-227.1-52.3-315-91.3c-80.9-35.9-147.7-79.4-198.7-129.2c-46.6-45.6-80.4-96.9-100.3-152.5
				c-18.2-50.8-25-105.1-20-161.3c4.9-55.8,21.1-112.1,48.1-167.4c24.9-51.1,59-100.3,98.6-142.4c38.7-41.2,82.4-75.4,126.5-98.9
				c22.4-12,44.8-21.2,66.6-27.4C671.7,518.6,693.7,515.4,714.4,515.4 M714.4,514.4c-327.3,0-823.2,794.9,229,982.1
				c13.6,2.4,23.5,3.5,30.5,3.5c78.5,0-237.8-143.9-79.6-143.9c16,0,36.8,1.5,63.4,4.7c74.3,9.1,137.1,13.1,190.7,13.1
				c408.4,0,272.8-233.2,541-233.2c45,0,101.4,6.6,173.6,21.9C1874,879.3,1144.7,583.3,745,516.8C735,515.2,724.8,514.4,714.4,514.4
				L714.4,514.4z"/>
		</g>
		<g class="st41">
			<path class="st42" d="M699.5,540c10.1,0,20,0.8,29.6,2.4c99,16.7,220.7,47.3,342.8,86.2c132.7,42.3,261.5,92.9,372.4,146.1
				c126.7,60.8,226.5,123.1,296.8,185c79.3,69.9,118.4,137.6,116.2,201.2c-87.5-22.2-155.9-32.9-209.3-32.9
				c-105.8,0-138.5,43.6-173.2,89.7c-22.3,29.7-45.4,60.4-88.8,84.1c-49.5,27.1-118,40.2-209.6,40.2c-53.6,0-116.5-4.6-186.9-13.7
				c-21.5-2.8-40.1-4.2-55.2-4.2c-31.4,0-49.2,5.9-54.3,17.9c-4.3,10.2,0.8,24.8,15.6,44.6c12.8,17.2,30.9,35.7,48.4,53.7
				c26.9,27.6,52.3,53.7,47.7,64.7c-1.6,3.9-7.3,5.8-16.9,5.8c-6.8,0-15.7-1-26.5-2.9c-120-21.7-225-52.8-312.2-92.5
				c-80-36.5-146.2-80.6-196.5-131.3c-46-46.3-79.3-98.3-98.9-154.7c-17.9-51.4-24.4-106.2-19.3-162.8c4.8-53.9,19.9-108.1,44.9-161
				c23.1-49,54.7-96.1,91.3-136.2c35.9-39.3,76.6-71.9,117.8-94.2c20.9-11.4,42-20.1,62.6-26C659,543,679.7,540,699.5,540
				 M699.5,539c-318,0-772.9,785.2,248.6,969.9c11.2,2,20,3,26.7,3c95,0-216-186.8-40.5-186.7c14.8,0,33,1.3,55.1,4.2
				c73.8,9.5,135.3,13.7,187,13.7c369.8,0,234.7-214,471.5-214c50.4,0,117.7,9.7,210.2,33.2c11.8-273.7-738.1-555-1129-620.8
				C719.5,539.7,709.6,539,699.5,539L699.5,539z"/>
		</g>
		<g class="st43">
			<path class="st44" d="M684.6,564.6c9.8,0,19.5,0.8,28.8,2.4c98.1,16.7,219.2,46.3,340.9,83.4c134.6,41,264.9,89.3,376.8,139.8
				c129.3,58.4,231.2,117.9,302.7,177c81.2,67.1,121.2,132.1,118.9,193.3c-106.2-30.9-185.6-45.9-242.7-45.9
				c-91.9,0-116.4,37.7-144.8,81.3c-35.1,54-74.9,115.2-261,115.2c-51.7,0-113.2-4.8-182.8-14.4c-18.5-2.5-34.9-3.8-48.8-3.8
				c-33.1,0-53,7.1-60.6,21.6c-14.4,27.3,18.6,75.9,47.7,118.8c23.5,34.6,45.7,67.3,38.1,81.6c-2.9,5.4-9.8,8-21.4,8
				c-6.4,0-14.3-0.9-23.5-2.5c-119-21.9-223.1-53.5-309.6-93.9c-79.2-37.1-144.7-82-194.5-133.7c-45.5-47.1-78.3-99.9-97.6-157.1
				c-17.6-52.1-23.8-107.4-18.7-164.4c4.7-51.9,18.8-103.8,41.7-154.2c21.4-46.9,50.5-91.7,84.2-129.7c33.2-37.4,71-68.3,109.2-89.4
				c19.5-10.8,39.2-19,58.5-24.6C646.3,567.5,665.8,564.6,684.6,564.6 M684.6,563.6c-308.7,0-722.6,775.6,268.2,957.7
				c9.4,1.7,17.3,2.6,23.6,2.6c106.8,0-190.6-230-3.8-230c13.6,0,29.7,1.2,48.7,3.8c73.2,10,133.2,14.4,182.9,14.4
				c333.8,0,198.5-196.5,405.7-196.5c53.6,0,130.2,13.2,243.7,46.3c12.4-264.2-758-530.7-1140.1-595.8
				C704.1,564.3,694.4,563.6,684.6,563.6L684.6,563.6z"/>
		</g>
		<g class="st45">
			<path class="st46" d="M669.7,589.2c9.5,0,18.9,0.8,28,2.3c97.5,16.8,217.9,45.4,339,80.5c136.7,39.6,268.5,85.8,381.1,133.5
				c132,55.9,235.8,112.8,308.6,169.1c83,64.2,123.9,126.6,121.6,185.4c-125.1-40.7-214.4-60.5-273.1-60.5
				c-78.8,0-96.9,34.1-117.9,73.6c-26.7,50.2-56.9,107-225.6,107c-49.6,0-109.5-5-178.2-15c-16.2-2.4-30.9-3.5-43.7-3.5
				c-33.4,0-54.6,7.9-64.8,24.1c-9,14.1-9.3,34.7-0.9,62.8c7.3,24.6,20,51.5,32.2,77.5c19.8,42.1,38.5,81.8,27.5,99.2
				c-4.2,6.6-12.3,9.8-24.8,9.8c-6,0-13-0.8-20.9-2.2c-118-22.1-221.3-54.2-307.1-95.4c-78.5-37.7-143.3-83.6-192.7-136.3
				C349.2,1185,335.8,1059.7,343.6,975c4.6-49.8,17.6-99.3,38.7-147.1c19.6-44.6,46.4-87.2,77.3-123c30.5-35.3,65.4-64.5,100.9-84.4
				C597.6,599.7,634.3,589.2,669.7,589.2 M669.7,588.2c-299.4,0-672.3,766,287.8,945.5c8.2,1.5,15.2,2.3,21.1,2.3
				c115.5,0-163-273.4,30.9-273.4c12.5,0,26.9,1.1,43.5,3.5c72.4,10.5,130.8,15,178.4,15c300.1,0,164.2-180.6,343.5-180.6
				c54.8,0,139,16.9,274,60.9c12.9-254.6-778-506.5-1151.2-570.9C688.6,588.9,679.2,588.2,669.7,588.2L669.7,588.2z"/>
		</g>
		<g class="st47">
			<path class="st48" d="M654.8,613.8c9.2,0,18.4,0.8,27.2,2.3c183.5,32.1,478.1,107.8,722.6,204.9
				c203.6,80.8,444.6,205,438.9,338.7c-146.2-52.1-241.6-76.4-300.4-76.4c-66.5,0-78.6,30.7-92.8,66.3c-9.4,23.6-19,48-45.6,67.1
				c-30.5,21.9-78.4,32.6-146.4,32.6c-47.3,0-105.6-5.3-173.3-15.7c-14.5-2.2-27.7-3.3-39.5-3.3c-32.6,0-54.6,8.3-67.1,25.5
				c-11.6,15.9-14.8,39.5-9.8,72.2c4.5,28.6,14.4,60.1,24.1,90.7c15.8,50,30.8,97.2,15.9,117.7c-5.4,7.4-14.4,11-27.4,11
				c-5.5,0-11.9-0.7-18.8-2c-117.1-22.3-219.6-54.9-304.9-97.1c-77.7-38.5-142-85.3-190.9-139.2c-44.4-48.9-76.4-103.6-95.1-162.7
				c-17-53.7-22.8-110.2-17.4-168c4.5-47.6,16.5-94.6,35.6-139.7c18.2-42.9,42-82,70.6-116.1C518.2,653.3,589.1,613.8,654.8,613.8
				 M654.8,612.8c-290.1,0-622.1,756.6,307.4,933.3c7.2,1.4,13.5,2,19,2c122.1,0-134-316.9,64.3-316.9c11.5,0,24.6,1.1,39.3,3.3
				c71.5,11,128.2,15.7,173.4,15.7c268.7,0,131.8-166,284.8-166c54,0,144.3,20.7,301.3,76.8c13.5-245.1-797.9-482.2-1162.3-545.9
				C673.1,613.5,664,612.8,654.8,612.8L654.8,612.8z"/>
		</g>
		<g class="st49">
			<path class="st50" d="M639.9,638.4c8.9,0,17.8,0.8,26.4,2.3c97.9,17.3,216.9,43.9,335.2,74.8c141.4,37,276.2,78.8,389.9,120.9
				c137.4,50.9,245.2,102.5,320.5,153.2c86.8,58.5,129.5,115.5,127,169.7c-165.6-63.8-268.9-93.6-324.9-93.6
				c-25.1,0-41.7,5.7-52.4,17.9c-9.5,10.9-13.1,25.8-17,41.6c-5.1,20.9-10.8,44.7-32.2,62.5c-24.6,20.6-66.4,30.6-127.8,30.6
				c-44.8,0-101.3-5.5-167.8-16.3c-13-2.1-25.1-3.2-36-3.2c-31.3,0-53.5,8.5-67.9,26c-14.4,17.5-20.5,44.2-18.8,81.6
				c1.5,32.8,8.7,69.3,15.7,104.5c11.5,58.4,22.5,113.6,3.4,136.7c-6.5,7.9-16,11.7-29.2,11.7c-5.1,0-10.9-0.6-17.1-1.8
				c-116.2-22.5-218.1-55.8-302.8-99c-77.1-39.3-140.8-87.2-189.4-142.4c-44-49.9-75.6-105.8-94.1-166
				c-16.7-54.6-22.4-111.8-16.8-169.9c4.3-45.2,15.3-89.6,32.7-131.9c16.6-40.4,38.1-77,64.1-108.8c25.8-31.5,54.2-56.4,84.7-73.9
				C576.9,647.5,608.7,638.4,639.9,638.4 M639.9,637.4c-280.8,0-571.8,747.2,327,921.1c6.4,1.2,12.1,1.8,17.3,1.8
				c127,0-103.8-360.5,96.7-360.5c10.7,0,22.6,1,35.8,3.2c70.5,11.5,125.2,16.3,168,16.3c239.3,0,101.2-152.6,229.3-152.6
				c51.5,0,146.2,24.7,325.8,94c14.1-235.5-817.9-458-1173.4-520.9C657.7,638.1,648.8,637.4,639.9,637.4L639.9,637.4z"/>
		</g>
		<g class="st51">
			<path class="st52" d="M625,663c8.6,0,17.2,0.8,25.7,2.2c180.2,32.4,478.9,100.6,727.6,186.5c140.2,48.4,250,97.3,326.4,145.2
				c43,27,75.8,54,97.4,80.2c22.7,27.6,33.6,55.1,32.3,81.5c-187.7-77.3-294.7-111.8-346.6-111.8c-20.2,0-32.8,5.1-39.7,15.9
				c-6.2,9.7-7.1,23-8,37c-1.3,19.5-2.8,41.7-19.2,58.5c-19,19.4-55,28.9-110.1,28.9c-42.2,0-96.7-5.7-161.9-17
				c-11.8-2-22.9-3.1-33.1-3.1c-29.2,0-51.9,8.7-67.4,25.8c-17.1,19-26.2,48.7-27.9,90.9c-1.5,37.1,2.8,78.7,6.9,118.9
				c6.9,67.3,13.5,130.8-9.7,156.5c-7.4,8.2-17.3,12.1-30.3,12.1c-4.8,0-10-0.6-15.6-1.7c-115.4-22.7-216.6-56.7-301-101.1
				c-76.5-40.3-139.8-89.4-188.1-146c-43.6-51.1-75-108.1-93.2-169.5c-16.5-55.6-22-113.4-16.3-171.9c4.2-42.7,14.2-84.3,29.8-123.6
				c15-37.8,34.4-71.9,57.8-101.3c23.3-29.3,49.2-52.3,76.9-68.4C566.6,671.4,595.9,663,625,663 M625,662
				c-271.5,0-521.6,737.9,346.6,908.9c5.7,1.1,11,1.7,15.8,1.7c130.8,0-73.1-404.3,128.3-404.2c9.9,0,20.9,1,32.9,3.1
				c69.3,12,122,17,162.1,17c211.9,0,72.3-140.3,177.1-140.3c47.4,0,144.8,28.8,347.5,112.2c14.7-226-837.8-433.7-1184.5-496
				C642.2,662.7,633.6,662,625,662L625,662z"/>
		</g>
		<g class="st53">
			<path class="st54" d="M610.1,687.6c8.3,0,16.7,0.7,24.9,2.2c96.3,17.5,433.4,82.2,730,177.4c142.9,45.9,254.7,92.1,332.3,137.3
				c44,25.6,77.4,51.2,99.5,76.2c23.2,26.3,34.3,52.4,33,77.7c-109.4-47.7-191.6-81.1-251.2-102.2c-54.9-19.4-92.3-28.8-114.5-28.8
				c-11.8,0-19.9,2.6-24.6,8c-7.5,8.5-5.7,22.5-3.6,38.6c2.6,19.5,5.4,41.7-8.8,57.9c-14.5,16.5-44.2,24.5-90.9,24.5
				c-39.4,0-91.7-5.9-155.6-17.6c-10.8-2-21.1-3-30.6-3c-27.4,0-49.6,8.5-65.9,25.2c-19.7,20.2-31.8,52.9-37,100.1
				c-4.6,41.4-3.4,88.4-2.2,133.8c2,76.5,3.8,148.8-23.3,176.7c-8,8.2-18.1,12.2-30.8,12.2c-4.4,0-9.3-0.5-14.3-1.5
				c-114.6-23-215.3-57.8-299.3-103.4c-76-41.3-138.9-91.7-187-149.9c-43.3-52.4-74.4-110.7-92.5-173.4
				c-16.4-56.7-21.7-115.2-15.9-173.8c7.8-79.1,35.8-153.1,78.8-208.5c20.9-26.9,44.3-48,69.5-62.8
				C556.2,695.3,583.1,687.6,610.1,687.6 M610.1,686.6c-262.2,0-471.4,728.8,366.2,896.6c5.2,1,10,1.5,14.5,1.5
				c133.6,0-41.7-448,159.2-448c9.3,0,19.4,1,30.4,3c68.1,12.4,118.5,17.6,155.8,17.6c186.1,0,45.1-129,127.9-129
				c41.7,0,140.4,32.8,366.6,131.5c15.3-216.5-857.8-409.5-1195.5-471C626.8,687.3,618.4,686.6,610.1,686.6L610.1,686.6z"/>
		</g>
		<g class="st55">
			<path class="st56" d="M595.2,712.2c8,0,16.1,0.7,24,2.2c292.6,54.1,539,110.7,732.5,168.2c145.7,43.3,259.5,86.8,338.2,129.3
				c44.9,24.2,79.1,48.5,101.5,72.2c23.7,24.9,35,49.8,33.6,73.9c-234-107.3-344.8-151.1-382.2-151.1c-7.8,0-12.9,1.8-15.6,5.6
				c-5,7.1-0.5,19.8,4.7,34.5c6.9,19.3,14.7,41.3,3.5,57c-10.2,14.4-34.5,21.4-74.3,21.4c-36.4,0-86.5-6.1-148.9-18.2
				c-9.9-1.9-19.5-2.9-28.3-2.9c-49.4,0-82.1,29.9-100.2,91.3c-15.8,53.7-18.5,123.5-21.1,191c-2.1,55.3-4.1,107.6-13.3,146.4
				c-4.9,20.7-11.3,35.8-19.8,46.2c-9.3,11.5-20.9,17-35.3,17c-4.2,0-8.6-0.5-13.2-1.4c-113.9-23.2-214.1-58.9-297.8-105.9
				c-75.5-42.4-138.1-94.3-186.1-154.2c-43.1-53.8-74-113.5-92.1-177.5c-8.2-29.3-13.7-59.4-16.3-89.6c-2.4-28.8-2.2-57.7,0.7-86
				c7.4-73.5,32.4-141.5,70.4-191.4C498.2,739.8,546.2,712.2,595.2,712.2 M595.2,711.2c-252.9,0-421.2,719.7,385.8,884.4
				c4.8,1,9.2,1.4,13.4,1.4c135.7,0-9.9-491.8,189.6-491.8c8.7,0,18.1,0.9,28.1,2.9c66.6,12.9,114.7,18.3,149.1,18.3
				c162,0,19.5-118.6,81.7-118.6c34.7,0,133,36.9,383.1,151.6C1842,952.5,948.4,774.2,619.5,713.4
				C611.3,711.9,603.2,711.2,595.2,711.2L595.2,711.2z"/>
		</g>
		<g class="st57">
			<path class="st58" d="M580.4,736.8c7.7,0,15.5,0.7,23.2,2.2c11.3,2.1,23.3,4.4,36,6.7c176.9,33.1,473,88.4,727,160.1
				c306.2,86.4,458.9,171.1,454.1,251.7c-136.8-65.6-229.1-108.5-290.4-135c-59.2-25.6-91.8-37-105.9-37c-4.5,0-7.3,1.1-8.5,3.4
				c-3.1,5.5,3.5,16.2,11.8,29.8c11.5,18.8,25.9,42.3,17.2,57.8c-6.6,11.9-26.4,17.9-58.8,17.9c-33.3,0-80.9-6.3-141.7-18.9
				c-9.2-1.9-18.1-2.8-26.4-2.9c-48.6,0-82.7,32.2-104.3,98.5c-18.9,58.1-25.8,133.6-32.6,206.7c-5.6,60.7-10.9,118.1-22.7,160.8
				c-6.3,22.8-13.8,39.4-23.1,50.9c-10.2,12.7-22.3,18.8-37,18.8c-3.9,0-8-0.4-12.2-1.3c-113.1-23.5-212.8-60.1-296.5-108.7
				c-75.1-43.6-137.6-97.1-185.6-158.9c-43-55.3-73.9-116.5-91.9-181.8c-8.2-29.8-13.7-60.4-16.2-90.9c-2.4-29.1-2.1-58.1,0.8-86.4
				c7-67.6,29.1-129.3,62.4-173.9c16.5-22.1,35.2-39.3,55.5-51.2C535.4,743,557.6,736.8,580.4,736.8 M580.4,735.8
				c-243.6,0-371,710.8,405.4,872.2c4.4,0.9,8.5,1.3,12.5,1.3c137.2,0,22.1-535.7,219.7-535.6c8.2,0,16.9,0.9,26.2,2.8
				c65.1,13.4,110.6,18.9,141.9,18.9c139.5,0-4.6-108.9,38.3-108.9c26.3,0,122.7,40.9,397.2,172.5C1838,961.6,923.8,798,603.8,737.9
				C595.9,736.5,588.1,735.8,580.4,735.8L580.4,735.8z"/>
		</g>
		<g class="st59">
			<path class="st60" d="M565.5,761.4c7.4,0,14.9,0.7,22.4,2.1c32.1,6.1,70.2,13.1,114.4,21.2c188,34.4,472.1,86.3,705.2,150.3
				c128,35.1,227.1,70.4,294.7,104.7c38.2,19.4,67.2,39,86.1,58.1c19.7,19.9,29,39.9,27.8,59.4c-137.5-68.6-242.8-120.9-309.2-152.5
				c-61.4-29.2-90.1-41.2-98.9-41.2c-1.9,0-3.2,0.6-3.7,1.7c-1.5,3.4,4.6,10.4,16.5,23.4c17.4,19,41.2,45.1,34.3,60.8
				c-4.1,9.4-19.2,14.1-44.8,14.1c-30,0-75.1-6.5-134.1-19.5c-8.5-1.9-16.8-2.8-24.7-2.8c-47.8,0-83.1,34.5-108.1,105.6
				c-21.9,62.3-33.2,143.6-44.1,222.2c-9.2,66.2-17.9,128.8-32.2,175.4c-7.7,24.9-16.3,43.1-26.3,55.7
				c-11.1,13.9-23.8,20.6-38.7,20.6c-3.6,0-7.5-0.4-11.4-1.2c-112.3-23.8-211.6-61.3-295.2-111.6c-74.8-45-137.2-100.1-185.4-163.9
				c-43-56.9-74-119.6-92.2-186.2c-16.2-59.4-21.6-121.1-15.6-178.5c3.2-31,9.7-60.3,19.2-87c9.3-26.3,21.3-49.6,35.7-69
				c14.5-19.6,31-34.9,49-45.4C524.9,766.8,544.8,761.4,565.5,761.4 M565.5,760.4c-234.3,0-320.9,702,425,860
				c4,0.9,7.9,1.3,11.6,1.3c138.2,0,54.4-579.5,249.4-579.5c7.7,0,15.9,0.9,24.5,2.8c63.4,13.9,106.3,19.5,134.3,19.5
				c118.4,0-27.2-100-2.3-100c16.7,0,109.6,44.8,409,194.2C1834,970.8,899.3,821.9,588.1,762.5C580.4,761,572.9,760.4,565.5,760.4
				L565.5,760.4z"/>
		</g>
		<g class="st61">
			<path class="st62" d="M550.6,786c7.1,0,14.4,0.7,21.6,2.1c46.1,9,107.4,19.6,178.2,32c185.4,32.4,439.2,76.7,651,130.2
				c1.5,1.1,3.1,2.4,4.8,3.7c21.5,16.6,66.2,51.1,60.4,67.9c-2.4,7-13.4,10.5-32.7,10.5c-26.5,0-68.9-6.7-126.1-20
				c-7.9-1.8-15.7-2.8-23.1-2.8c-46.8,0-83.4,36.8-111.7,112.6c-24.8,66.5-40.4,153.5-55.4,237.6c-12.8,71.8-24.9,139.6-41.9,190.2
				c-9.1,27.1-18.8,46.9-29.6,60.5c-12,15.1-25.1,22.4-40.2,22.4c-3.4,0-7-0.4-10.6-1.2c-111.4-24.1-210.3-62.6-293.9-114.6
				c-74.6-46.4-137-103.3-185.6-169.2c-43.2-58.6-74.5-122.8-93-190.7c-16.5-60.6-22-122.6-15.9-179.3c3-27.7,8.6-53.8,16.8-77.3
				c8.1-23.3,18.6-43.8,31-60.8C480.7,804.6,513.8,786,550.6,786 M1396.2,943.5c3.5,1.4,9.8,4.5,15.4,7.3c-3-0.8-6.1-1.6-9.2-2.3
				C1400.9,947.3,1398.1,945.1,1396.2,943.5 M1428.6,957.2c119.1,31.1,211.4,62.2,274.5,92.6c36.5,17.6,64.1,35.3,82.1,52.8
				c18.6,18,27.4,36.2,26.2,54c-145.8-75.4-243.4-126.5-307.9-160.3C1469.7,978.6,1445.6,966,1428.6,957.2 M550.6,785
				c-225.1,0-270.8,693.3,444.6,847.8c3.7,0.8,7.3,1.2,10.8,1.2c138.9,0,86.9-623.4,278.8-623.4c7.3,0,14.9,0.9,22.9,2.8
				c61.6,14.3,101.6,20.1,126.3,20.1c81.1,0-3.7-62-32.1-84c-292.2-73.8-661.6-129.7-829.5-162.3C565,785.6,557.7,785,550.6,785
				L550.6,785z M1393.8,941.7c-1.4,0,2,2.9,8.2,7.7c6.1,1.5,12.2,3.1,18.2,4.6C1403.1,945.3,1395.4,941.7,1393.8,941.7L1393.8,941.7
				z M1420.2,954c45.3,23.2,156.3,82.2,392.2,204.2C1820,1081,1645.3,1012.1,1420.2,954L1420.2,954z"/>
		</g>
		<g class="st63">
			<path class="st64" d="M535.7,810.6c6.8,0,13.8,0.7,20.8,2.1c56.5,11.2,138.4,24.6,233.2,40.2c201.6,33.1,477.6,78.5,687.7,132.5
				c2.7,4.2,3.4,7.6,2.1,10.1c-2.1,4-9.6,6-22.1,6c-22.9,0-62.5-6.9-117.7-20.6c-7.4-1.8-14.7-2.8-21.7-2.8
				c-24.3,0-46.6,11.2-66.4,33.3c-17.7,19.7-33.6,47.9-48.6,86.2c-27.7,70.6-47.5,163.2-66.6,252.8c-32.3,151.7-62.9,295-126.4,295
				c-3.2,0-6.6-0.4-10-1.1c-110.3-24.3-208.7-63.9-292.5-117.8c-74.4-47.8-137.1-106.6-186.2-174.6c-22.2-30.8-41.7-63.5-57.8-97.3
				c-15.2-31.8-27.5-64.7-36.6-97.9c-17-61.8-22.7-123.8-16.7-179.3c5.4-49.2,19.7-90.8,41.4-120.4C474,826.6,503,810.6,535.7,810.6
				 M1384.9,920.3c10.5,4.5,44.1,23.2,68.8,42.1C1410.2,937.3,1391.1,925,1384.9,920.3 M1471.3,974.8c7,4,14.3,8.2,21.9,12.5
				c-4.8-1.3-9.6-2.5-14.5-3.8C1476.9,980.9,1474.4,978,1471.3,974.8 M1507.8,993.3c94.6,25.5,167.5,51.1,216.9,76.3
				c28.1,14.3,49.2,28.8,62.9,43.1c13.9,14.5,20.4,29.2,19.3,43.6C1683.8,1090.5,1583.3,1035.7,1507.8,993.3 M535.7,809.6
				c-215.8,0-220.7,684.7,464.2,835.6c3.5,0.8,6.9,1.1,10.2,1.1c139.2,0,119.5-667.3,308-667.3c6.9,0,14,0.9,21.5,2.7
				c59.7,14.8,96.8,20.6,117.9,20.6c23.9,0,27.5-7.5,20.6-18c-306.5-78.8-741.7-137.3-921.3-172.8
				C549.5,810.2,542.5,809.6,535.7,809.6L535.7,809.6z M1381.8,918.3c-3.1,0,16.5,13.5,82.3,51.3
				C1436.9,946,1386.2,918.3,1381.8,918.3L1381.8,918.3z M1464.1,969.6c6.1,5.3,11,10.3,13.9,14.8c7.5,1.9,15,3.9,22.4,5.9
				C1487,982.7,1474.9,975.8,1464.1,969.6L1464.1,969.6z M1500.5,990.3c65.8,37.1,164.1,91.1,307.3,167.6
				C1814.6,1094.9,1683.2,1038.8,1500.5,990.3L1500.5,990.3z"/>
		</g>
		<g class="st65">
			<path class="st66" d="M520.8,835.2c6.5,0,13.2,0.7,20,2c64.4,12.9,165.3,28.4,282.1,46.2c150.7,23,321.5,49.1,481.3,79.7
				c-31,23.3-59,71.6-85.6,147.6c-24,68.4-43.9,150.4-63.3,229.7c-39.8,163.1-77.3,317.2-141.2,317.2c-3.1,0-6.2-0.4-9.3-1.1
				c-109-24.5-206.8-65.2-290.9-120.9c-74.4-49.3-137.4-109.9-187.4-180.1c-22.5-31.6-42.3-65.2-58.8-99.8
				c-15.5-32.5-28.2-66-37.6-99.6c-17.7-62.9-23.9-124.6-17.9-178.5c4.7-42.7,17-78.4,35.5-103.3C466.8,848.7,492,835.2,520.8,835.2
				 M1371.9,894.3v1c8.7,0,38.7,12.5,68.4,28.5c33.7,18.1,54.6,34,54.6,41.4c0,1.5-1,2.7-3,3.5c-2.4,1-6.3,1.5-11.4,1.5
				c-1.2,0-2.4,0-3.8-0.1c-38-23.1-66.4-41.4-84.5-54.5c-21.8-15.8-22.2-19.4-22-20c0-0.2,0.5-0.4,1.7-0.4V894.3 M1351.1,947.5l0,1
				c6.5,0,13.2,0.9,20,2.7c49.5,13,84.8,20.1,105,21.1c21.3,12.9,45.8,27.5,72.9,43.3c-66.5-17.7-145.1-35.2-239.8-53.5
				c13.3-9,27.3-13.6,41.8-13.6V947.5 M1563.2,1021.4c76.5,21,135.3,42.2,174.8,63.2c22.3,11.8,39,23.8,49.6,35.6
				c10.7,11.8,15.6,23.8,14.7,35.7C1708.7,1104.3,1628.2,1059.1,1563.2,1021.4 M520.8,834.2c-206.6,0-170.6,676.3,483.7,823.4
				c3.3,0.7,6.4,1.1,9.6,1.1c127.2,0,149-593.3,292.6-696.1c-287.2-55.2-619.9-97-765.7-126.4C534.1,834.8,527.3,834.2,520.8,834.2
				L520.8,834.2z M1371.9,894.3c-11.1,0,9.6,19.2,104.5,76.9c1.4,0.1,2.8,0.1,4.1,0.1C1543.6,971.3,1394.1,894.3,1371.9,894.3
				L1371.9,894.3z M1351.1,947.5c-16,0-30.7,5.3-44.4,15.1c90,17.3,175.4,35.9,249.3,55.8c-31-18-57.4-33.7-79.6-47.2
				c-18.5-0.8-51.6-6.9-105.1-21C1364.4,948.3,1357.6,947.5,1351.1,947.5L1351.1,947.5z M1556,1018.4
				c62.2,36.2,143.1,81.8,247.1,139.1C1809.3,1105.4,1706.8,1059.1,1556,1018.4L1556,1018.4z"/>
		</g>
		<g class="st67">
			<path class="st68" d="M506,859.8c6.2,0,12.6,0.7,19.2,2c70.5,14.5,189.4,31.1,327,50.4c139.9,19.6,298.5,41.8,445.7,67.2
				c-49.5,78.6-87,217.1-123.3,350.9c-47.3,174.7-92,339.8-156.2,339.8c-2.9,0-5.9-0.3-8.8-1c-107.3-24.6-204.5-66.3-288.9-123.9
				c-74.3-50.7-138-113.1-189.1-185.4c-44.5-62.9-78.8-133.1-99.3-203.1c-18.7-63.8-25.5-125-19.6-176.8
				c4.1-36.4,14.6-66.6,30.2-87.3c8-10.6,17.3-18.7,27.7-24.2C481.3,862.6,493.2,859.8,506,859.8 M1364.1,870.8
				c15.9,0,54.3,14.1,85.2,28.1c17,7.7,32.5,15.6,43.6,22.3c16.5,10,18.3,14.2,18.3,15.5c0,0.3,0,1-1.5,1.6
				c-1.4,0.5-3.6,0.8-6.5,0.8c-15,0-47.7-7-97.3-20.9c-44.3-31.8-49.1-42-48.1-45.3C1358.3,871.2,1361.5,870.8,1364.1,870.8
				L1364.1,870.8 M1384.1,915.9l0,1c6.1,0,12.5,0.9,18.8,2.7l2,0.6c39.7,28.5,102.5,68.4,186.9,118.6
				c-75.3-20.1-170.5-40.1-290.7-60.9c12.5-19.5,25.5-34.4,38.6-44.4c14.3-11,29.2-16.5,44.4-16.5V915.9 M1605.5,1044.5
				c62.1,17.2,109.6,34.8,141.5,52.2c17.8,9.7,31.1,19.7,39.5,29.5c8.3,9.7,12.1,19.5,11.3,29.3
				C1725.4,1114.6,1660.8,1077.3,1605.5,1044.5 M506,858.8c-197.3,0-120.5,668,503.3,811.2c3.1,0.7,6.1,1,9,1
				c114.5,0,165.8-511.3,281.1-692.4c-292.6-50.6-631.9-88.6-774.1-117.8C518.6,859.4,512.2,858.8,506,858.8L506,858.8z M1364,869.8
				c-15.2,0-9.6,12.8,41.3,49.4c54.1,15.1,84.2,21,97.8,21C1550.2,940.2,1399.7,869.8,1364,869.8L1364,869.8z M1384.1,915.9
				c-32,0-59.8,23.7-84.7,62.7c110.8,19.2,214.9,40.1,299.2,63c-94.8-56.3-156-95.7-193.2-122.4c-0.7-0.2-1.5-0.4-2.2-0.6
				C1396.7,916.8,1390.3,915.9,1384.1,915.9L1384.1,915.9z M1598.6,1041.6c54.8,32.6,120.9,70.8,200,115.5
				C1804.2,1113.8,1723.2,1075.5,1598.6,1041.6L1598.6,1041.6z"/>
		</g>
		<g class="st69">
			<path class="st70" d="M1358.2,845.8c18.1,0,54.3,9.6,96.8,25.6c36.9,13.9,68.4,29,73.4,35.1c0.5,0.7,0.5,1,0.5,1l0,0
				c0,0-0.4,0.6-3.5,0.6c-7.7,0-29.5-3.8-90.1-22c-6.1-1.8-12.3-2.8-18.3-2.8c-11.9,0-23.7,3.6-35.3,10.7
				c-33.3-27.3-38.3-38.8-36.6-43.6C1346.3,847.4,1350.6,845.8,1358.2,845.8L1358.2,845.8 M491.1,884.4c5.9,0,12,0.7,18.4,2
				c75.3,15.8,211.4,33,368.9,53c134.5,17,286.8,36.3,426.4,58c-40.8,84.8-76.5,205.6-110.9,322.4c-27.9,94.8-54.3,184.3-82.3,251.7
				c-15,36.1-29.1,62.6-43.1,80.8c-15.5,20.2-30.5,30.1-45.9,30.1c-2.7,0-5.5-0.3-8.3-1c-105.3-24.7-201.7-67.3-286.4-126.7
				c-74.4-52.1-138.8-116.2-191.3-190.4c-45.7-64.5-81.3-135.8-103.1-206.3c-10-32.4-17-64.1-20.7-94.1c-3.6-29.2-4-56.1-1.2-80.1
				c3.5-30.5,12.4-55.7,25.6-72.7C450.9,893.4,469.1,884.4,491.1,884.4 M1381.6,896.5c44.4,36.1,126.4,90.5,243.8,161.7
				c-77.4-20.7-181.5-41.2-317.6-62.4C1332.5,944.9,1356.7,912.4,1381.6,896.5 M1638.7,1063.9c50.3,14.1,88.7,28.5,114.3,42.9
				c28.1,15.8,41.6,32,40.2,48.3C1736.7,1122.3,1684.8,1091.7,1638.7,1063.9 M1358.2,844.8c-21.6,0-22.4,12.9,23.5,50.4
				c11.3-7.1,23.1-11,35.4-11c5.9,0,11.9,0.9,18,2.7c53.2,15.9,80.5,22,90.4,22C1557.6,909,1406.3,844.8,1358.2,844.8L1358.2,844.8z
				 M491.1,883.4c-188.1,0-70.5,659.8,522.9,799c2.9,0.7,5.7,1,8.5,1c106.1,0,177.2-466.8,283.7-686.8
				c-301.1-46.9-655.9-81.8-796.6-111.2C503.2,884,497,883.4,491.1,883.4L491.1,883.4z M1381.6,895.2
				c-27.3,17.1-52.2,53.4-75.4,101.3c123.8,19.3,238.6,40.6,325.7,64.4C1499.8,981.1,1422.3,928.5,1381.6,895.2L1381.6,895.2z
				 M1632,1061c46.9,28.3,100.6,60.1,162,95.7C1799.1,1120.8,1734.9,1089.1,1632,1061L1632,1061z"/>
		</g>
		<g class="st71">
			<path class="st72" d="M1354.2,820.3c23.3,0,65.8,9.5,116.4,26.2c41.5,13.6,71.8,26.6,76.7,30.4c-4,0-19.8-3-80.2-22.4
				c-5.7-1.8-11.6-2.8-17.3-2.8c-21.9,0-43.3,13-65.4,39.7c-47.7-39.1-54.6-56-52-63.3C1334.3,822.9,1341.6,820.3,1354.2,820.3
				L1354.2,820.3 M1384.7,894.2c52.2,42.6,142.1,103.2,267.1,180.2c-76.7-20.5-185.8-40.5-333.2-61.1
				C1341.6,959.5,1363.3,920.5,1384.7,894.2 M476.1,908.9c5.6,0,11.5,0.7,17.7,2c78.7,16.6,230.1,33.7,405.4,53.5
				c131.9,14.9,281.4,31.7,416.5,50.6c-35.8,84-69.6,190.7-102.2,293.9c-31.9,100.7-62,195.8-92.8,267.6
				c-16.5,38.5-31.8,66.7-46.6,86.2c-16.4,21.6-31.8,32.1-47.2,32.1c-2.6,0-5.3-0.3-7.9-0.9c-102.9-24.7-198.2-68.1-283.3-129.1
				c-74.5-53.4-139.8-119-194.1-195c-47.2-66-84.5-138.2-107.9-208.9c-21.3-64.3-30.1-124.9-24.7-170.6
				C415,937.8,438.9,908.9,476.1,908.9 M1664.8,1080.1c40.6,11.5,71.5,23.3,92.1,35.1c22.3,12.9,33,26.1,31.8,39.5
				C1744.4,1128.4,1702.8,1103.4,1664.8,1080.1 M1354.2,819.3c-33,0-37.6,17.9,30.3,73.5c20.8-25.4,42.5-40.1,65.3-40.1
				c5.6,0,11.3,0.9,17,2.7c50.7,16.3,74.6,22.4,80.6,22.4C1565.9,877.8,1413.8,819.2,1354.2,819.3L1354.2,819.3z M1384.5,892.8
				c-23.5,28.6-45.8,70.9-67.4,121.4c133.1,18.6,254.6,39.3,341.1,63C1518.9,991.6,1433.1,932.5,1384.5,892.8L1384.5,892.8z
				 M476.1,907.9c-178.6,0-20.2,651.9,542.6,786.8c2.7,0.6,5.4,1,8.1,1c99.5,0,185.6-436.8,290.3-681.5
				c-310.2-43.3-683.5-74.7-823.1-104.2C487.7,908.6,481.7,907.9,476.1,907.9L476.1,907.9z M1658.2,1077.2
				c39.4,24.2,83,50.5,131.2,79.1C1794.1,1126.6,1743,1100.5,1658.2,1077.2L1658.2,1077.2z"/>
		</g>
		<g class="st73">
			<path class="st74" d="M1352.2,794.2c35.7,0,91.4,13.7,131.9,25.3c0.9,0.3,1.8,0.5,2.6,0.8c-1.4-0.1-2.8-0.2-4.2-0.2
				c-28.5,0-57.6,24.6-88.8,75.1c-28.6-23.1-49.2-42.5-61.4-57.8c-11-13.8-15.4-24.4-12.9-31.5
				C1322.2,798.2,1333.2,794.2,1352.2,794.2L1352.2,794.2 M1394.3,898.2c59.2,47.5,152.9,111.5,278.7,190.1
				c-74.3-19.7-186.4-38.6-342.3-57.9C1353.5,974.1,1374.3,930.9,1394.3,898.2 M461.2,933.5c5.3,0,11,0.6,16.9,1.9
				c81.8,17.7,249.9,34.3,444.6,53.5c135.2,13.3,274.9,27.1,405.1,43.2c-32.3,79.8-63.9,174.2-94.6,265.4
				c-35.8,106.7-69.7,207.6-103.5,283.8c-18.1,40.9-34.5,70.8-50.1,91.6c-17.3,23-33.2,34.2-48.6,34.2c-2.5,0-5-0.3-7.4-0.9
				c-100-24.5-194-68.6-279.6-131.1c-38.3-28-75-59.8-109.1-94.5c-31.7-32.3-61.5-67.5-88.4-104.5c-49-67.3-88.3-140.2-113.7-210.8
				c-23.3-64.7-33.3-123.8-28.1-166.3c2.5-20.8,8.5-37,17.9-48.2C432.2,939.4,445.2,933.5,461.2,933.5 M1685.6,1093.9
				c32.5,9.2,57.2,18.8,73.5,28.4c17.6,10.4,25.9,21.1,24.9,31.9C1749.5,1133.3,1716.4,1113.1,1685.6,1093.9 M1352.2,793.2
				c-46.9,0-57,23.8,41.8,103.5c28.8-47,58.3-75.6,88.5-75.6c5.3,0,10.7,0.9,16.1,2.8c48.1,16.5,68.4,22.7,70.4,22.7
				C1574.8,846.5,1422.3,793.2,1352.2,793.2L1352.2,793.2z M1394,896.7c-21.9,35.7-43.5,82.1-64.8,134.6
				c140.2,17.3,266.2,36.8,350,59.8C1540.6,1004.6,1449.9,941.7,1394,896.7L1394,896.7z M461.2,932.5c-169.4,0,29.7,644,562.2,774.6
				c2.6,0.6,5.1,0.9,7.7,0.9c94,0,191.9-414.5,298.1-676.8c-319.3-39.3-712.7-66.9-850.9-96.8C472.2,933.2,466.6,932.5,461.2,932.5
				L461.2,932.5z M1679.2,1091c32.5,20.3,67.7,41.9,105.6,64.8C1789.1,1131.5,1748.6,1110.1,1679.2,1091L1679.2,1091z"/>
		</g>
		<g class="st75">
			<path class="st76" d="M1352,767.7c32.4,0,81.4,8.1,145.9,24c-28.2,10.6-58.4,46.7-92,110.3c-73-58.2-106.5-98-99.4-118.3
				C1310.2,773.1,1325.5,767.7,1352,767.7L1352,767.7 M1515.2,789.5l0,1c5,0,10.1,0.9,14.9,2.7c21.8,8,38.4,14.2,48.5,18
				c-2.9-0.8-6.2-1.7-9.7-2.7c-15.3-4.2-38-10.6-63.5-17c3.3-0.7,6.5-1.1,9.7-1.1V789.5 M1406.5,905.1
				c64.2,50.9,159.4,116.5,283.2,195c-70.7-18.5-184.2-36-346.5-53.4C1366.4,988.4,1387.1,942,1406.5,905.1 M446.4,958.1
				c5,0,10.4,0.6,16,1.9c84.3,18.6,269.2,34.3,483.4,52.3c132.2,11.2,268.9,22.7,394.6,36.1c-29.3,73.8-58.7,156.9-87.1,237.4
				c-39.9,112.9-77.6,219.5-114.3,300.3c-19.7,43.3-37.2,75.1-53.7,97.1c-18,24.1-34.7,36.3-49.9,36.3c-2.4,0-4.7-0.3-7.1-0.9
				c-96.6-24.2-189.2-68.9-275.2-132.6c-38.4-28.5-75.6-60.8-110.4-96.2c-32.4-32.9-63-68.6-91.1-106.1
				c-51.1-68.5-92.8-141.8-120.4-212c-25.5-64.9-36.9-122.2-32.1-161.3C403.4,976.2,419.7,958.1,446.4,958.1 M1702.1,1105.6
				c53.1,15.2,79.1,31.4,77.4,48.3C1752.7,1137.3,1726.7,1121.1,1702.1,1105.6 M1352,766.7c-62.7,0-80.2,30,54.2,136.8
				c32-60.7,63.9-102.4,95.2-112C1452,779.3,1392.6,766.7,1352,766.7L1352,766.7z M1515.2,789.5c-4.6,0-9.1,0.7-13.7,2.1
				c47.7,11.9,86.1,23.6,89,23.6c2.1,0-14.5-6.2-60-22.9C1525.4,790.4,1520.3,789.5,1515.2,789.5L1515.2,789.5z M1406.2,903.6
				c-21.5,40.7-43,90-64.4,144c145.6,15.5,274.3,33.4,354,55.2C1560.7,1017.3,1467.6,952.4,1406.2,903.6L1406.2,903.6z M446.4,957.1
				c-160.2,0,79.7,636.4,581.8,762.4c2.4,0.6,4.9,0.9,7.3,0.9c89.3,0,196.9-397.3,306.4-672.8c-328-35-742.4-58.3-879.2-88.6
				C456.8,957.8,451.4,957.1,446.4,957.1L446.4,957.1z M1695.8,1102.8c26.5,16.8,54.6,34.3,84.5,52.7
				C1784.1,1135.6,1752.2,1118.2,1695.8,1102.8L1695.8,1102.8z"/>
		</g>
		<g class="st77">
			<path class="st78" d="M1353.7,740.8c49.5,0,118.6,13.8,167.3,24.4c-29.8,18.1-63.1,65.7-101.8,145.2
				c-92.4-72.9-134.8-123-125.8-148.7C1298.2,747.8,1318.5,740.8,1353.7,740.8L1353.7,740.8 M1547.8,757.8l0,1
				c4.8,0,9.6,0.9,14.1,2.8c11.1,4.4,43.1,17.1,49.3,21.1c-5.4-0.2-22.6-4.2-46-9.6c-11.6-2.7-24.6-5.6-38.6-8.7
				c7.3-3.7,14.4-5.6,21.2-5.6V757.8 M1419.9,913.6c67.6,53.1,162.7,119.2,282.9,196.5c-67-17.3-177.8-32.6-347.1-47.9
				C1379.6,1002.1,1400.6,953.5,1419.9,913.6 M431.5,982.7c4.7,0,9.8,0.6,15.2,1.9c86.2,19.5,298.1,34.4,522.5,50.1
				c129,9,262.5,18.4,383.7,29.3c-26.5,66.7-53.3,139.5-79.3,209.8c-44,119.1-85.5,231.5-125.2,317c-21.3,45.8-40,79.4-57.3,102.7
				c-18.9,25.5-36.1,38.4-51.3,38.4c-2.3,0-4.5-0.3-6.7-0.8c-92.8-23.9-183.7-68.8-270.2-133.5c-38.5-28.8-76.1-61.6-111.8-97.5
				c-33.2-33.3-64.8-69.5-94.1-107.4c-53.6-69.5-97.9-143-128-212.5c-28.1-64.9-41.1-120.3-36.6-156c1.7-13.3,5.8-23.5,12.2-30.5
				C411.1,986.3,420.2,982.7,431.5,982.7 M1714.9,1115.4c41.3,11.9,61.4,24.7,60,38C1754.3,1140.5,1734.2,1127.7,1714.9,1115.4
				 M1353.7,739.8c-79.9,0-107.3,35.8,65.8,172.2c35.9-74.2,71-128.6,104.2-147.2C1469.6,752.9,1402.1,739.8,1353.7,739.8
				L1353.7,739.8z M1547.8,757.8c-7.9,0-15.9,2.4-24.1,7c44.9,9.9,80.4,18.9,87.9,18.9c6.2,0-6.7-6.2-49.3-23.1
				C1557.5,758.7,1552.7,757.8,1547.8,757.8L1547.8,757.8z M1419.5,912c-21.5,44.4-43.3,95.9-65.2,151
				c149.8,13.5,279.7,29.3,354.4,49.6C1578.6,1029.2,1484.8,963.5,1419.5,912L1419.5,912z M431.5,981.7
				c-151,0,129.6,628.8,601.3,750.2c2.3,0.6,4.6,0.9,7,0.9c85.2,0,200.9-383.8,314.5-669.8c-336.3-30.3-772.5-48.8-907.4-79.4
				C441.3,982.3,436.2,981.7,431.5,981.7L431.5,981.7z M1708.7,1112.6c21.3,13.7,43.6,27.8,66.9,42.5
				C1779.2,1139,1754.2,1125,1708.7,1112.6L1708.7,1112.6z"/>
		</g>
		<g class="st79">
			<path class="st80" d="M1357.3,712.4v1c54,0,126.4,12.5,190.5,25c-32,24.4-69.6,83.9-114.9,181.5c-112.2-88-163.6-148.5-152.7-180
				c6-17.5,32-26.4,77.1-26.4L1357.3,712.4 M1580.3,726.2l0,1c4.6,0,9.1,0.9,13.4,2.8c14.5,6.2,24.9,11,31.9,14.5
				c8,4.1,9.6,5.8,9.9,6.3c-0.3,0.1-1,0.3-2.8,0.3c-8.9,0-33.2-4.8-64-10.8c-5.2-1-10.5-2.1-16.1-3.1c9.7-6.7,19-10.1,27.7-10.1
				V726.2 M1433.6,922.9c69.6,54.4,163.5,120.2,279.3,195.5c-62.2-15.7-172.2-29-344.8-41.7
				C1392.8,1015.2,1414.3,964.9,1433.6,922.9 M416.6,1007.3c4.4,0,9.2,0.6,14.4,1.8c87.8,20.4,318.4,33.2,562.5,46.7
				c125.5,6.9,255.2,14.1,371.7,22.7c-23.7,59-47.8,121.8-71.1,182.6c-48.1,125.4-93.6,243.8-136.4,334c-23,48.4-42.9,83.9-61,108.5
				c-19.8,26.9-37.5,40.6-52.6,40.6c-2.2,0-4.3-0.3-6.4-0.8c-88.6-23.4-177.6-68.4-264.6-134c-38.6-29.1-76.8-62.3-113.4-98.5
				c-34-33.7-66.8-70.1-97.4-108.4c-55.5-69.3-104-144.7-136.5-212.5c-31-64.7-45.8-118.1-41.6-150.4
				C387.1,1018.2,398,1007.3,416.6,1007.3 M1724.7,1123.7c31.4,9.1,46.8,19,45.6,29.4C1754.8,1143.1,1739.5,1133.3,1724.7,1123.7
				 M1357.2,712.4c-98.4,0-137.9,41.5,76,209c41.3-89.3,81-157.5,116.9-183.6C1491.5,726.4,1414.4,712.4,1357.2,712.4L1357.2,712.4z
				 M1580.3,726.2c-9.7,0-19.8,4-30.2,11.6c40.3,7.8,71.9,14.4,82.5,14.4c10.3,0,1.1-6.1-38.6-23.1
				C1589.6,727.1,1585,726.2,1580.3,726.2L1580.3,726.2z M1433.3,921.4c-21.8,47.2-44.1,100.3-66.6,156.2
				c152.8,11.2,283,24.8,352,43.4C1594,1040,1501,974.4,1433.3,921.4L1433.3,921.4z M416.6,1006.3c-141.9,0,179.4,621.5,620.9,738
				c2.2,0.6,4.4,0.9,6.7,0.9c81.6,0,204.2-372.9,322.5-667.6c-344-25.3-802.7-38.6-935.4-69.4C425.9,1006.9,421,1006.3,416.6,1006.3
				L416.6,1006.3z M1718.7,1121c16.9,11,34.3,22.2,52.4,33.7C1774.3,1141.8,1754.9,1130.7,1718.7,1121L1718.7,1121z"/>
		</g>
		<g class="st81">
			<path class="st82" d="M1362.7,684.5v1c65.3,0,150.6,14.4,212.9,25l1.1,0.2c-18.3,16-38.4,43-61.3,82.3
				c-20.6,35.3-43,80.1-68.7,136.7c-132.1-103.2-192.6-174.4-179.7-211.8c3.9-11.3,14.7-19.8,32.2-25.1c15.6-4.8,37-7.2,63.5-7.2
				L1362.7,684.5 M1612.8,694.5l0,1c4.4,0,8.6,1,12.7,2.8c12.5,5.8,21.4,10.3,27.1,13.8c7.5,4.5,7.4,6,7.3,6.2c0,0-0.3,1.1-6.3,1.1
				c-12.4,0-40.2-4.6-72.5-10.1c11.3-9.2,22-13.8,31.6-13.8V694.5 M1447.4,932.8c70.5,54.9,162.3,119.7,273.2,192.7
				c-57-14-165.6-25.2-340.3-35.1C1406.2,1026.8,1427.6,976.7,1447.4,932.8 M401.8,1031.9c4.1,0,8.6,0.6,13.6,1.8
				c89,21.3,339.3,31.4,604.3,42.2c121.1,4.9,246.4,10,357.7,16.3c-20.8,50.9-42,104.2-62.5,155.9
				c-52.4,131.8-101.8,256.3-147.7,351.2c-24.6,51-45.8,88.4-64.7,114.4c-20.7,28.4-38.9,42.8-54,42.8c-2.1,0-4.1-0.3-6.1-0.8
				c-84-22.7-170.9-67.8-258.4-133.9c-74.6-56.4-149.3-128.4-216.2-208.3c-58.5-69.9-110.2-145.2-145.7-212
				c-34.1-64.3-50.8-115.7-46.9-144.7C377.6,1040.3,386.5,1031.9,401.8,1031.9 M1732,1130.6c18.3,5.4,29.3,11.1,32.7,17.1
				c0.9,1.6,1.3,3.2,1.1,4.9C1754.4,1145.3,1743.1,1137.9,1732,1130.6 M1362.6,684.5c-117.9,0-172,46.8,84.4,246.8
				c47.7-105.5,92.8-188.3,131.9-221.2C1516,699.4,1429.2,684.5,1362.6,684.5L1362.6,684.5z M1612.8,694.5c-10.7,0-22,5.4-33.9,15.5
				c34.9,5.9,62.3,10.5,74.8,10.5c14.3,0,8.9-6-27.7-23C1621.7,695.5,1617.3,694.5,1612.8,694.5L1612.8,694.5z M1447,931.2
				c-22.3,49.3-45.2,103.6-68.2,160.1c154.9,8.8,284.5,20,347.3,36.6C1607.4,1049.9,1516,985,1447,931.2L1447,931.2z M401.8,1030.9
				c-132.8,0,229.3,614.4,640.5,725.7c2.1,0.6,4.2,0.8,6.4,0.8c78.3,0,207-364.2,330.2-666.2c-351.2-19.9-832.9-27.4-963.3-58.6
				C410.5,1031.5,405.9,1030.9,401.8,1030.9L401.8,1030.9z M1726.1,1127.9c13.1,8.6,26.6,17.4,40.4,26.4
				C1769.3,1144.2,1754.6,1135.5,1726.1,1127.9L1726.1,1127.9z"/>
		</g>
		<g class="st83">
			<path class="st84" d="M1392.8,639.9c59.4,0,135.1,8.4,231.4,25.8c-20.1,12.1-43.9,42.3-72.7,92.3
				c-25.2,43.8-54.5,103.2-89.4,181.7c-152.3-120.6-221.1-206-204.4-253.9C1268.2,655.3,1313.7,639.9,1392.8,639.9L1392.8,639.9
				 M1642.9,660.7l0,1c5.1,0,9.9,1.7,14.3,5l0.1,0.1l0.2,0.1c9.6,2.9,18.9,5.7,24.9,7.6c-4.9-0.8-11.9-2.2-20.6-3.8
				c-8.8-1.7-19.5-3.7-31.6-5.9c4.4-2,8.7-3.1,12.7-3.1V660.7 M1462.8,942.8c70,55.3,158.5,118.7,263.2,188.6
				c-51.5-12.1-157.4-21.1-331.9-28C1421.4,1038.1,1443.2,987,1462.8,942.8 M386.9,1056.5c3.8,0,8,0.6,12.7,1.7
				c90,22.1,361.5,29.2,648.9,36.6c116.5,3,236.9,6.1,342.7,10.3c-15.7,37.7-31.7,76.6-47.3,114.3
				c-55.7,135.4-113.4,275.3-164,378.3c-27.2,55.4-50.3,96-70.6,124.3c-22.3,31-41.3,46.7-56.5,46.7c-2,0-3.9-0.3-5.7-0.8
				c-79.1-22-163.7-66.9-251.7-133.3c-74.9-56.6-151.7-128.9-221.9-209.1c-61.7-70.4-116.9-145.4-155.5-211.1
				c-18.4-31.4-32.4-59.4-41.4-83.2c-9.2-24.1-12.9-42.9-11.2-55.8C367.2,1063,374.4,1056.5,386.9,1056.5 M1737.2,1136.4
				c13.1,3.9,20.9,8.1,23.3,12.5c0.6,1.1,0.9,2.3,0.7,3.4C1753,1146.9,1745.1,1141.6,1737.2,1136.4 M1392.8,638.9
				c-150.3,0-242.3,55.7,69.7,302.4c63.4-142.6,121.4-252.9,164.6-276C1566.1,654.1,1471.4,638.9,1392.8,638.9L1392.8,638.9z
				 M1642.9,660.7c-5,0-10.3,1.5-15.8,4.5c34.8,6.3,58.6,11.3,62.4,11.3c2.9,0-6.2-3-31.7-10.6
				C1653.1,662.4,1648.1,660.7,1642.9,660.7L1642.9,660.7z M1462.5,941.2c-22.7,51.1-46.1,106.2-69.8,163
				c155.4,6.2,282.6,14.8,338.7,29.4C1619.7,1059.3,1531.2,995.6,1462.5,941.2L1462.5,941.2z M386.9,1055.5
				c-123.7,0,279,607.4,660.1,713.5c2,0.5,3.9,0.8,6,0.8c74.7,0,211.1-356.8,339.7-665.6c-358-14.3-865-15.6-992.8-47
				C395,1056.1,390.7,1055.5,386.9,1055.5L386.9,1055.5z M1731.4,1133.7c10,6.7,20.1,13.4,30.5,20.2
				C1764.4,1146.1,1753.4,1139.5,1731.4,1133.7L1731.4,1133.7z"/>
		</g>
		<g class="st85">
			<path class="st86" d="M1401.9,611.7c90.3,0,197.8,17,251.2,25.6c-39.1,29.2-94.1,126.2-177.5,313.3
				c-172.2-135.6-249.9-231.8-231.2-286C1256.5,629.5,1309.5,611.7,1401.9,611.7L1401.9,611.7 M1675.7,629.1v1c4.8,0,9.2,1.7,13.3,5
				l0.1,0.1l0.2,0.1c15.3,5.1,21.8,7.6,24.3,8.9c-5.8,0-23.2-2.8-47.2-6.7c-2.6-0.4-5.3-0.9-8.1-1.3c6.3-4,12.1-6,17.4-6V629.1
				 M1476.3,953.7c69,54.3,154.3,115.7,253.4,182.5c-46.1-10.2-149.4-16.9-323.5-20.9C1434.9,1048.2,1456.5,998.2,1476.3,953.7
				 M372,1081.2c3.5,0,7.5,0.6,11.9,1.7c90.9,23,399.1,26.4,697.2,29.7c109.7,1.2,223.2,2.5,322.1,4.7
				c-12.2,28.7-24.7,58.1-36.7,86.6c-60.1,142-122.3,288.8-176.3,397.2c-29.1,58.3-53.5,101.1-74.8,130.9
				c-23.4,32.7-42.9,49.3-58,49.3c-1.9,0-3.7-0.2-5.5-0.8c-73.9-21.2-156.1-65.7-244.5-132.2c-75.3-56.7-154.1-129.1-227.9-209.3
				c-65.1-70.8-124.1-145.4-165.9-209.9c-20.1-31-35.4-58.3-45.6-81.2c-10.3-23.3-14.7-40.9-13.1-52.3
				C356.2,1085.9,361.8,1081.2,372,1081.2 M1740.5,1141.1c8.8,2.7,14.1,5.6,15.7,8.7c0.4,0.7,0.5,1.4,0.5,2.2
				C1751.2,1148.2,1745.8,1144.7,1740.5,1141.1 M1401.9,610.7c-171,0-282.9,60.5,74.1,341.4c70.3-157.7,134.4-283.9,179.7-315.4
				C1592.1,626.5,1489.3,610.7,1401.9,610.7L1401.9,610.7z M1675.7,629.1c-6.2,0-12.9,2.6-20.1,7.6c30.3,4.9,51.6,8.4,58.1,8.4
				c6,0-0.6-3-24.2-10.8C1685.3,630.8,1680.7,629.1,1675.7,629.1L1675.7,629.1z M1476,952.1c-23.2,52-47.1,107.5-71.2,164.2
				c155.7,3.5,280.7,9.6,330.1,22.1C1629.5,1067.6,1544.2,1005.8,1476,952.1L1476,952.1z M372,1080.2
				c-114.7,0,328.8,600.7,679.6,701.3c1.9,0.5,3.8,0.8,5.8,0.8c72.1,0,213.4-351.2,347.3-665.9c-364-8.3-895.8-2.8-1020.6-34.5
				C379.6,1080.7,375.5,1080.2,372,1080.2L372,1080.2z M1734.8,1138.5c7.4,5,14.8,10,22.5,15.1
				C1759.6,1147.7,1751.5,1142.7,1734.8,1138.5L1734.8,1138.5z"/>
		</g>
		<g class="st87">
			<path class="st88" d="M1412.3,583.4c91.1,0,193.8,14.4,261.8,23.9c3.1,0.4,6.2,0.9,9.2,1.3c-22.1,18.9-50.1,60.1-85.4,125.8
				c-29.8,55.5-64.5,127.7-109.2,227.2c-191.8-150.6-278.5-257.6-257.6-318.1c7.4-21.4,28.6-37.3,62.9-47.2
				C1323.5,587.7,1363.2,583.4,1412.3,583.4L1412.3,583.4L1412.3,583.4 M1708.5,597.5v1c4.5,0,8.6,1.7,12.3,5l0.1,0.1l0.2,0.1
				c15.2,5.6,19.2,8,20.1,8.9c-0.5,0.1-1.4,0.3-3.4,0.3c-8.1,0-27.2-2.5-49.6-5.6c7.6-5.8,14.4-8.7,20.3-8.7V597.5 M1489.5,964.7
				c67.5,52.9,149,111.9,242.3,175.5c-40.9-8.4-138.5-12.6-313.6-13.6C1439.7,1077.3,1464.8,1019.7,1489.5,964.7 M357.1,1105.8
				c3.2,0,6.9,0.6,11.1,1.7c74.2,19.4,313.1,22,537,22c70.4,0,143.5-0.3,214.1-0.6c71-0.3,138-0.5,202.9-0.5
				c34.3,0,64.7,0.1,92.9,0.2c-8.5,19.6-17,39.2-25.6,58.9c-129.3,298-263.1,606.2-327.7,606.2c-1.8,0-3.6-0.2-5.3-0.8
				c-68.4-20.2-148.1-64.2-237-130.7c-75.7-56.7-156.8-129-234.3-209.2c-68.8-71.1-131.6-145.2-176.9-208.5
				c-21.9-30.6-38.7-57.2-49.8-79.2c-11.4-22.4-16.5-38.9-15-48.9C344.6,1109.3,349.1,1105.8,357.1,1105.8 M1742.4,1144.9
				c6.5,2.1,8.8,4.1,9.5,5.5c0.2,0.4,0.3,0.7,0.3,1.1C1748.8,1149.3,1745.6,1147.1,1742.4,1144.9 M1412.2,582.4
				c-192.2,0-325.8,64.9,76.9,380.7c78-173.8,148.9-316.5,196.5-355.2C1620.1,598.7,1508.8,582.4,1412.2,582.4L1412.2,582.4z
				 M1708.5,597.5c-6.8,0-14.5,3.6-22.8,10.4c25.4,3.5,43.9,6,52.1,6c9.2,0,5.4-3.1-16.3-11.1
				C1717.5,599.2,1713.2,597.5,1708.5,597.5L1708.5,597.5z M1489.1,963.1c-23.6,52.6-48,108.2-72.4,164.5
				c155.3,0.8,277.4,4.3,320.1,14.7C1637.9,1075.1,1556.1,1015.6,1489.1,963.1L1489.1,963.1z M357.1,1104.8
				c-105.8,0,378.5,594.2,699.2,689.1c1.8,0.5,3.6,0.8,5.6,0.8c69.6,0,215.5-346.8,354.8-667.1c-30.3-0.2-61.9-0.2-94.4-0.2
				c-131.6,0-278.2,1.1-417.1,1.1c-244.8,0-465.5-3.4-536.7-22C364.1,1105.3,360.4,1104.8,357.1,1104.8L357.1,1104.8z
				 M1736.7,1142.3c5.3,3.6,10.6,7.2,16,10.8C1754.7,1148.9,1749,1145.3,1736.7,1142.3L1736.7,1142.3z"/>
		</g>
		<g class="st89">
			<path class="st90" d="M1423.9,554.8c90.5,0,192.8,12.5,260.5,20.8c10.7,1.3,20.8,2.6,30,3.6c-52.9,49.8-137.2,226.3-212.9,393.2
				c-111.8-87.5-191.9-162.3-238.2-222.5c-21.2-27.6-35.7-52.6-43.1-74.4c-6.9-20.3-7.7-38.2-2.5-53.3c8.3-24.2,32.5-42.1,71.9-53.2
				C1323,559.6,1368.2,554.8,1423.9,554.8L1423.9,554.8 M1741.2,565.9l0,1c4.2,0,8,1.7,11.3,5l0.1,0.1l0.2,0.1
				c13.9,5.8,15.7,8,15.8,8.6c-0.2,0.2-1.3,0.9-7.2,0.9c-9.3,0-26.4-1.8-42.4-3.7c8.5-7.3,15.9-11,22.2-11V565.9 M1502.3,975.6
				c65.4,51.1,142.9,107.5,230.3,167.8c-26.7-4.8-85.8-7.1-184.8-7.1c-33.8,0-72.4,0.3-117.8,0.8
				C1457.2,1075.9,1480,1024.9,1502.3,975.6 M342.3,1130.4c2.9,0,6.3,0.5,10.3,1.6c43.9,11.9,157,17.7,345.9,17.7
				c142.4,0,307.4-3.1,467-6.1c93.4-1.8,181.7-3.4,261.6-4.4c-4.6,10.2-9.1,20.5-13.7,30.8c-69.2,155.8-140.7,317-202,436.7
				c-68.7,134.2-116.1,199.5-144.9,199.5c-1.8,0-3.5-0.3-5.1-0.7c-62.7-19.2-139.8-62.5-229.2-128.8
				c-76.2-56.5-159.5-128.6-240.9-208.6c-72.7-71.4-139.5-144.8-188.3-206.8c-23.7-30.2-42-56.2-54.3-77.2
				c-12.6-21.6-18.3-37-17-45.7C332.5,1132.9,335.9,1130.4,342.3,1130.4 M1743,1148c3.2,1.2,4.2,2.3,4.4,2.9c0,0.1,0,0.1,0.1,0.2
				C1746,1150.1,1744.5,1149,1743,1148 M1423.9,553.8c-214,0-371.1,68.9,78.1,420.2c86.3-190.3,164.8-350.4,214.8-395.5
				C1649.5,570.7,1529.7,553.8,1423.9,553.8L1423.9,553.8z M1741.2,565.9c-7.1,0-15.3,4.4-24.5,12.7c20.4,2.4,35.9,3.9,44.8,3.9
				c12.5,0,11.5-3.1-8.2-11.4C1749.7,567.6,1745.7,565.9,1741.2,565.9L1741.2,565.9z M1501.9,974c-24,52.9-48.6,108.2-73.4,164
				c42.9-0.5,83-0.8,119.4-0.8c94.5,0,163.5,2.1,189.4,8.1C1645,1081.9,1567.1,1025,1501.9,974L1501.9,974z M342.3,1129.4
				c-96.8,0,428.1,587.9,718.8,676.9c1.7,0.5,3.5,0.8,5.4,0.8c67.4,0,217.5-343.4,362.1-669c-216.9,2.6-504,10.6-730.1,10.6
				c-164,0-296-4.2-345.6-17.6C348.7,1129.9,345.2,1129.4,342.3,1129.4L342.3,1129.4z M1737.3,1145.3c3.6,2.5,7.2,4.9,10.8,7.4
				C1749.8,1149.8,1746,1147.3,1737.3,1145.3L1737.3,1145.3z"/>
		</g>
		<g class="st91">
			<path class="st92" d="M1436.8,526.1c90.2,0,188,10.6,259.4,18.3c19.1,2.1,35.7,3.9,50.1,5.2C1692.3,604,1602.9,790,1514,983.4
				c-122.1-95.4-209.6-177-260.1-242.7c-23.2-30.1-39-57.4-47-81.2c-7.5-22.1-8.4-41.7-2.7-58.3c4.8-14,14.5-26.3,28.9-36.3
				c13.3-9.4,31-17.2,52.6-23.1C1323.2,531.4,1374,526.1,1436.8,526.1L1436.8,526.1 M1773.9,534.2l0,1c3.9,0,7.4,1.7,10.4,5l0.1,0.1
				l0.2,0.1c12,5.8,12,7.8,11.9,8c0,0.2-0.7,1.8-11.7,1.8c-7.4,0-18.3-0.7-34.1-2.1c9.1-8.5,16.9-12.8,23.2-12.8V534.2
				 M1514.8,986.5c62.9,49,136.1,102.6,217.6,159.3c-14.5-2.2-42.3-3.2-84.6-3.2c-47.1,0-112.6,1.3-205.9,4.1
				C1464.7,1096.4,1490.4,1039.6,1514.8,986.5 M1438.8,1148.8l-1.2,2.6c-73.9,163-150.2,331.6-215.3,457.3
				c-73.1,141.1-122.6,209.7-151.3,209.7c-1.7,0-3.3-0.2-4.9-0.7c-56.9-18.1-131.2-60.6-221.1-126.5
				c-76.8-56.3-162.4-128.1-247.7-207.6c-76.7-71.5-147.8-144.3-200-205c-25.7-29.8-45.5-55.1-58.9-75.3
				c-17.2-25.9-19.9-37.5-19.1-42.7c0.6-3.8,3.2-5.6,8.1-5.6c2.6,0,5.8,0.5,9.5,1.6c35.4,10,119.8,14.8,257.8,14.8
				c178.3,0,417.5-8.2,628.6-15.4C1300.1,1153.3,1372.7,1150.8,1438.8,1148.8 M1436.8,525.1c-236.1,0-418.6,72.5,77.7,459.8
				c95.2-207.2,181.8-385.2,234-436.1C1680.2,542.4,1552,525.1,1436.8,525.1L1436.8,525.1z M1773.9,534.2c-7.2,0-15.7,5.1-25.5,14.6
				c15.5,1.5,27.9,2.4,36.4,2.4c15.9,0,17.9-3.2,0.2-11.7C1781.8,536,1778.1,534.2,1773.9,534.2L1773.9,534.2z M1514.4,985
				c-24.3,52.9-49.1,107.7-74.1,162.8c82.9-2.5,154.5-4.1,207.4-4.1c44.5,0,75.6,1.2,88.9,4C1650.9,1088,1577.2,1034,1514.4,985
				L1514.4,985z M1736.7,1147.6c2.2,1.6,4.6,3.2,6.8,4.7C1745,1150.4,1742.6,1148.9,1736.7,1147.6L1736.7,1147.6z M1440.3,1147.8
				c-250.5,7.5-603,22.6-845.7,22.6c-123.7,0-218.9-3.9-257.5-14.8c-3.9-1.1-7.1-1.6-9.7-1.6c-87.9,0,477.7,581.8,738.4,664.7
				c1.7,0.5,3.4,0.8,5.2,0.8C1136.3,1819.4,1290.5,1478.5,1440.3,1147.8L1440.3,1147.8z"/>
		</g>
		<g class="st93">
			<path class="st94" d="M1450.9,497.3c89.9,0,187,9.3,258,16.1c27.1,2.6,50.7,4.9,69.6,6.2c-51.8,55.1-138.4,229.7-252.4,474.7
				c-132.2-103.2-227-191.5-281.6-262.7c-25.1-32.6-42.1-62.2-50.8-88c-8.1-24-9-45.3-2.8-63.3c5.4-15.6,16.3-29.2,32.4-40.4
				c15-10.4,34.8-19,59-25.5C1324.1,503,1380.8,497.3,1450.9,497.3L1450.9,497.3 M1806.6,503.6c3.7,0,6.8,1.6,9.5,4.9l0.1,0.1
				l0.2,0.1c8.5,4.8,8.8,6.8,8.6,7.3c-0.2,0.8-2.3,2.8-17.1,2.8c-6.3,0-14.5-0.3-25-1C1792.4,508.4,1800.4,503.6,1806.6,503.6
				 M1526.9,997.4c60,46.7,128.7,97.3,204.3,150.4c-6.6-0.7-17.2-1-32-1c-52.5,0-153.3,4.5-245.5,8.9l10.6-22.9
				C1485,1087.9,1506.3,1041.7,1526.9,997.4 M1450.5,1157.8c-83.4,180.5-157.6,339.8-222,461.9c-74.9,142.1-124.9,211.1-153,211.1
				c-1.7,0-3.3-0.3-4.8-0.7c-50.8-16.8-122.4-58.5-212.7-123.9c-77.4-56-165.5-127.4-254.7-206.3c-81-71.7-156.4-143.8-212.1-203.1
				c-27.7-29.4-49.1-54.1-63.6-73.5c-18.8-25-21.9-35.5-21.2-39.9c0.3-1.7,1.2-3.9,6-3.9c2.3,0,5.2,0.5,8.7,1.5
				c29.2,8.5,95.5,12.7,202.5,12.7c205.3,0,521.6-15.8,775.7-28.6C1352.9,1162.6,1403.5,1160,1450.5,1157.8 M1450.8,496.3
				c-258.6,0-467.8,75.9,75.7,499.6c104.4-224.5,199.8-420.9,254.2-477.1C1711.8,513.9,1575.6,496.2,1450.8,496.3L1450.8,496.3z
				 M1806.6,502.6c-7.1,0-15.8,5.6-25.9,16.1c10.8,0.8,20,1.2,27.2,1.2c19.5,0,24.5-3.2,9-12C1814,504.4,1810.6,502.6,1806.6,502.6
				L1806.6,502.6z M1526.5,995.8c-24.4,52.6-49.4,106.7-74.4,160.9c110-5.3,198.7-9,247.1-9c17.6,0,29.9,0.5,35.9,1.6
				C1655.8,1093.6,1586.6,1042.6,1526.5,995.8L1526.5,995.8z M1735.1,1149.3c1.2,0.9,2.6,1.8,3.8,2.7
				C1740.1,1150.8,1738.8,1149.9,1735.1,1149.3L1735.1,1149.3z M1452.1,1156.7c-273.8,13.2-680.1,36.1-928.5,36.1
				c-97.7,0-171-3.6-202.2-12.7c-3.6-1.1-6.6-1.6-8.9-1.6c-79.1,0,527.2,576,758,652.5c1.6,0.5,3.3,0.8,5.1,0.8
				C1138.9,1831.8,1297.1,1492.5,1452.1,1156.7L1452.1,1156.7z"/>
		</g>
		<g class="st95">
			<path class="st96" d="M1466.1,468.2c89.5,0,182.1,7.9,256.5,14.2c35.3,3,65.9,5.6,88.7,6.7c-58.1,64.6-166.8,290.1-273.3,516
				c-72.9-56.8-135.8-109.9-186.8-157.8c-48.5-45.5-87.6-87.5-116.3-124.8c-26.9-35.1-45.3-67-54.6-94.8
				c-8.6-25.9-9.6-48.9-2.9-68.4c5.9-17.3,18.1-32.3,36.1-44.6c16.7-11.4,38.8-20.8,65.8-28C1326.2,474.3,1387.3,468.2,1466.1,468.2
				L1466.1,468.2 M1839.3,471l0,1c3.4,0,6.2,1.6,8.6,4.9l0.1,0.1l0.2,0.1c5.9,4,6.1,5.9,5.9,6.6c-0.4,1.4-4.1,3.8-23.4,3.8
				c-4.4,0-9.3-0.1-15-0.3c9.7-10.1,17.6-15.3,23.6-15.3V471 M1538.7,1008.2c56.6,44.1,120.7,91.5,190.4,140.9
				c-1.6-0.1-3.6-0.1-6-0.1c-33.1,0-136.1,6.7-257.6,14.8c8.1-17.3,16.2-34.6,24.4-51.8C1506,1077.8,1522.6,1042.4,1538.7,1008.2
				 M1462.3,1166c-78.1,166.1-160,338.7-228.2,465.9c-36.6,68.3-66.5,118.5-91.4,153.5c-27.3,38.3-48.3,57.8-62.6,57.8
				c-1.6,0-3.2-0.3-4.6-0.8c-44.7-15.5-113.4-56.2-204.2-120.9c-78.1-55.7-168.7-126.5-261.9-204.7
				c-85.6-71.9-165.3-143.3-224.4-201c-60.1-58.7-93.5-98.5-91.7-109.1c0.2-1.1,0.8-2.5,4.3-2.5c2,0,4.6,0.5,7.8,1.5
				c24.1,7.4,79.5,11.2,164.6,11.2c233.9,0,641.3-27.3,938.8-47.2C1427.2,1168.4,1445.1,1167.2,1462.3,1166 M1466.1,467.2
				c-281.5,0-519.1,78.8,72.3,539.4c114.1-241.9,218.7-457.6,275.1-518.5C1744.3,485.1,1600.2,467.2,1466.1,467.2L1466.1,467.2z
				 M1839.3,471c-6.8,0-15.5,6-25.9,17.2c6.4,0.3,12.2,0.4,17.2,0.4c23.2,0,31.4-3.2,18.1-12.2C1846.1,472.8,1843,471,1839.3,471
				L1839.3,471z M1538.4,1006.7c-24.5,51.9-49.4,105.2-74.4,158.3c129.6-8.7,226.8-14.9,259.2-14.9c4.4,0,7.6,0.1,9.5,0.4
				C1659.8,1098.8,1595.2,1050.9,1538.4,1006.7L1538.4,1006.7z M1732.7,1150.4c0.6,0.4,1.1,0.8,1.7,1.2
				C1735.3,1151,1734.7,1150.6,1732.7,1150.4L1732.7,1150.4z M1464,1164.9c-290.9,19.4-744.7,50.9-993.9,50.9
				c-79.8,0-138.6-3.2-164.3-11.1c-3.4-1-6-1.5-8.1-1.5c-70.6,0,576.5,570.4,777.6,640.2c1.6,0.5,3.2,0.8,5,0.8
				C1141.7,1844.2,1303.7,1505.8,1464,1164.9L1464,1164.9z"/>
		</g>
		<g class="st97">
			<path class="st98" d="M1871.6,440.5l0,1c3.2,0,5.9,1.3,8.2,4c2.5,2.9,3.4,5.3,2.5,7.1c-2.1,4.7-15.1,7.3-38.5,7.7
				c11.5-12.5,20.8-18.8,27.7-18.8V440.5 M1471.6,445.3c81.3,0,167.7,5.8,237.1,10.5c51.8,3.5,96.5,6.5,127.8,6.5c1,0,1.9,0,2.8,0
				c-63,72.3-179.2,311.7-293,551.2c-77.8-60.6-144.9-117-199.3-167.9c-51.8-48.4-93.5-92.9-124.1-132.4
				c-28.8-37.2-48.4-70.9-58.4-100.3c-9.3-27.3-10.5-51.6-3.4-72.1c6.3-18.3,19.3-34.2,38.7-47.2c17.9-12,41.7-21.8,70.9-29.3
				C1320.6,451.6,1386.3,445.3,1471.6,445.3L1471.6,445.3 M1547,1016.6c54,42,114.4,86.9,179.4,133.4c-13.6,0.7-63.4,5.1-135.5,11.3
				c-34.6,3-73.9,6.4-117.3,10.1c8.5-18,17.1-36,25.6-54C1514.9,1084.3,1531.2,1050,1547,1016.6 M1470.3,1173.8
				c-79.6,167.8-162.9,342.1-231.8,470.1c-36.9,68.5-66.9,118.9-91.8,154c-27.2,38.4-48,57.8-61.9,57.8c-1.6,0-3.1-0.3-4.6-0.8
				c-85.5-31.4-296.1-186.2-464.7-320.6c-90.5-72.1-174.6-142.8-237-199c-31.8-28.6-56.4-52.2-73.3-70.1
				c-23.1-24.5-25.8-32.4-25.4-34.9c0.1-0.4,0.3-1.5,2.9-1.5c1.7,0,4.1,0.5,7.1,1.4c20.4,6.5,66.1,9.8,135.9,9.8
				C695.9,1240.1,1276.8,1190.4,1470.3,1173.8 M1871.6,440.5c-7.8,0-17.9,7.3-30,20.9c33.3-0.4,49.2-4.7,39-16.6
				C1878,441.9,1875,440.5,1871.6,440.5L1871.6,440.5z M1471.5,444.3c-301.3,0-558.1,78.3,75.1,570.8
				c120.9-254.3,233.4-484.9,294.9-553.8c-1.6,0-3.3,0-5.1,0C1762.2,461.4,1612,444.3,1471.5,444.3L1471.5,444.3z M1546.7,1015.1
				c-24.7,51.9-49.7,104.8-74.7,157.5c145.6-12.5,247.5-21.7,257.4-21.7c0,0,0,0,0,0C1661.6,1102.5,1600.9,1057.3,1546.7,1015.1
				L1546.7,1015.1z M1729.4,1150.9c0.1,0.1,0.3,0.2,0.3,0.2C1730.5,1151,1730.3,1150.9,1729.4,1150.9L1729.4,1150.9z M1472,1172.6
				c-304.5,26.1-800.4,66.5-1046.3,66.5c-66.1,0-114.2-2.9-135.6-9.8c-3.1-1-5.6-1.5-7.4-1.5c-61.8,0,625.8,565.1,797.2,628
				c1.6,0.6,3.2,0.9,4.9,0.9C1144.7,1856.7,1308,1518.5,1472,1172.6L1472,1172.6z"/>
		</g>
		<g class="st99">
			<path class="st100" d="M1904.1,408.5l0,1c3,0,5.4,1.4,7.5,4.3c1.6,2.3,2,4.2,1.3,5.7c-2.2,4.4-13.6,7-34,7.7
				c10.6-11.7,19.1-17.7,25.3-17.7V408.5 M1492.7,413.6c83.3,0,167,5.2,240.8,9.8c52.5,3.3,97.8,6.1,130,6.1c3.8,0,7.4,0,10.8-0.1
				c-62,72.2-179.9,312.3-316.2,595.2c-82.9-64.6-154.4-124.8-212.3-179.1c-55.1-51.6-99.5-99.2-132-141.5
				c-30.6-39.8-51.5-76-62-107.5c-9.8-29.4-11-55.5-3.4-77.6c7-20.3,21.5-37.9,43.2-52.2c19.9-13.2,46.5-24,79-32.2
				C1325.8,420.4,1398.4,413.6,1492.7,413.6L1492.7,413.6 M1558.7,1027.6c50.1,38.9,105.4,80.3,164.5,123
				c-13.9,2.8-101.6,13.2-237,27.5c14-28.9,28.1-58.4,41.8-86.9C1538.3,1069.9,1548.6,1048.7,1558.7,1027.6 M1482.9,1180.4
				c-77.2,160.2-165.6,341.9-238.4,475c-37.6,68.8-68.2,119.4-93.3,154.7c-27.4,38.5-48.2,58-61.7,58c-1.6,0-3.1-0.3-4.5-0.8
				c-31.7-12.4-96.2-51.9-186.7-114.1c-79.1-54.4-177.4-125.8-276.7-201c-95.7-72.5-184.4-142.4-249.8-196.9
				c-97.4-81.2-106.4-97.8-105.8-101.1c0-0.2,0.1-0.7,1.7-0.7c1.4,0,3.6,0.5,6.3,1.4c17.2,5.8,55.5,8.8,113.7,8.8
				C612.6,1263.6,1117.8,1218.8,1482.9,1180.4 M1904.1,408.5c-7,0-16.3,6.9-27.6,19.8c28.9-0.9,43-5.1,35.9-15.1
				C1910.1,410,1907.3,408.5,1904.1,408.5L1904.1,408.5z M1492.6,412.6c-326,0-617.9,81.5,65.7,613.5
				c132.1-274.3,255.7-526.8,318.1-597.8c-4.1,0.1-8.4,0.2-13,0.2C1787.2,428.5,1636.6,412.6,1492.6,412.6L1492.6,412.6z
				 M1558.3,1026.1c-24.4,50.6-49.1,102.1-73.8,153.2c149.8-15.8,248.6-27.7,240.6-28.5C1664,1106.7,1608.6,1065.2,1558.3,1026.1
				L1558.3,1026.1z M1484.6,1179.3c-314.9,33.1-854.5,83.3-1096.8,83.3c-55.5,0-95.4-2.6-113.4-8.7c-2.9-1-5.1-1.4-6.6-1.4
				c-53.1,0,675,560.1,816.8,615.8c1.5,0.6,3.2,0.9,4.9,0.9C1147.7,1869.1,1315.2,1530.5,1484.6,1179.3L1484.6,1179.3z"/>
		</g>
		<g class="st101">
			<path class="st102" d="M1936.8,377.5c2.7,0,4.9,1.5,6.5,4.6c0.9,1.7,1,3.2,0.3,4.6c-2.4,4.7-13.6,8.7-33.3,11.9
				C1921.9,384.6,1930.8,377.5,1936.8,377.5 M1905.5,401.3c-66.2,83.6-201.6,360.6-345,654c-93.1-56.8-173.7-110.6-239.6-159.7
				c-62.7-46.8-113.8-90.7-151.8-130.5c-35.9-37.5-61.1-72.5-75-103.8c-13-29.3-16.5-56.2-10.3-80c4.4-17.2,14-33.2,28.4-47.7
				c13.6-13.6,31.9-26.2,54.4-37.4c40.2-20,95.7-36.5,165.1-49.1c127.9-23.2,280.4-29.6,403-34.8
				C1806.1,409.2,1868,406.6,1905.5,401.3 M1561.3,1058.1c48.9,29.8,102.1,61,158.3,92.9c-2.3,1.3-13.4,4.8-62.8,12.5
				c-38.1,5.9-92.5,13.4-157.6,21.7C1520.1,1142.5,1541,1099.6,1561.3,1058.1 M1495.7,1187.6c-84.1,171.4-171.9,347.9-245.1,479.5
				c-38.4,69.1-69.5,119.9-94.9,155.4c-27.7,38.6-48.4,58.1-61.5,58.1c-1.6,0-3.1-0.3-4.5-0.9c-55.3-23.7-268.5-169.8-455.2-304.1
				c-220-158.2-377.3-280.2-382.4-296.7c-0.1-0.4-0.1-0.6-0.1-0.7c0,0,0.2-0.2,0.8-0.2c1.2,0,3,0.4,5.5,1.3c14.9,5.3,48,8,98.5,8
				C595,1287.3,1176.4,1227.9,1495.7,1187.6 M1936.8,376.5c-6.8,0-16.6,8.2-28.9,23.4c27.1-4.1,40.9-9.7,36.3-18.3
				C1942.3,378.2,1939.8,376.5,1936.8,376.5L1936.8,376.5z M1907.9,399.9c-238.4,35.8-1505.6-50.1-347,656.8
				C1705.3,761.4,1842.3,481,1907.9,399.9L1907.9,399.9z M1560.9,1056.7c-21.1,43.1-42.3,86.5-63.5,129.7
				c139.7-17.7,230.5-31.8,223.2-36C1662.9,1117.7,1609.7,1086.5,1560.9,1056.7L1560.9,1056.7z M1497.4,1186.4
				c-321.4,40.6-901.6,100-1140.6,100c-48.3,0-82.7-2.4-98.1-7.9c-2.6-0.9-4.6-1.4-5.9-1.4c-44.6,0,723.9,555.3,836.5,603.6
				c1.5,0.7,3.2,1,4.9,1C1150.8,1881.6,1322.6,1542.6,1497.4,1186.4L1497.4,1186.4z"/>
		</g>
		<g class="st103">
			<path class="st104" d="M1969.8,345.5c2.3,0,4.1,1.6,5.3,4.8c0.5,1.4,0.4,2.7-0.3,3.8c-2.3,3.5-10.7,6-25.1,7.3
				C1958.6,350.9,1965.3,345.5,1969.8,345.5 M1538.4,350.8c86,0,170.7,4.5,245.5,8.4c53.6,2.8,100,5.3,133.8,5.3
				c10.8,0,19.8-0.2,27.4-0.8c-60.3,75.1-199,354.4-345.8,650l-17,34.2c-93.2-72.6-173.5-140.4-238.6-201.6
				c-61.8-58.2-111.6-111.9-148-159.8c-34.2-45-57.5-86-69.2-121.9c-10.9-33.4-12-63.3-3.3-88.7c8.4-24.4,26.1-45.5,52.6-62.7
				c24.3-15.7,56.6-28.6,96.2-38.3C1338.4,358.7,1425.5,350.8,1538.4,350.8L1538.4,350.8 M1583,1050.9
				c41.2,32.1,85.7,65.7,132.4,99.9c0,0,0,0,0,0c-0.4,0.5-2.7,2.2-15.1,5.4c-9.5,2.5-23.5,5.4-41.4,8.8
				c-34.6,6.5-83.1,14.3-144.4,23.4C1537.9,1141.7,1561.2,1094.7,1583,1050.9 M1511.1,1190.9c-81.8,163.7-175.8,349.3-253.3,486.5
				c-39.4,69.8-71.2,121.2-97.1,157.1c-28.1,38.9-48.8,58.7-61.6,58.7c-1.7,0-3.2-0.3-4.6-1c-42.6-20.7-268.4-170.8-459.3-301.6
				c-108-74-205.9-142.4-275.5-192.6c-38.5-27.7-68.4-49.9-88.9-66c-10.8-8.5-19.1-15.3-24.7-20.3c-6.8-6.1-8.1-8.3-8.3-9
				c0,0,0.1,0,0.1,0c0.6,0,2,0.2,4.8,1.3c12.5,4.7,40,7.1,81.9,7.1C553.3,1311,1168.9,1241.2,1511.1,1190.9 M1969.8,344.5
				c-5.2,0-12.8,6.3-22.4,18c20.6-1.6,31.3-5.4,28.6-12.6C1974.6,346.3,1972.6,344.5,1969.8,344.5L1969.8,344.5z M1538.4,349.8
				c-375.6,0-743,86.9,44.3,699.6c155.8-313.6,303-611.8,364.7-686.8c-8.3,0.6-18.3,0.9-29.7,0.9
				C1837.8,363.5,1687.4,349.8,1538.4,349.8L1538.4,349.8z M1582.7,1049.4c-23.2,46.6-46.6,93.7-69.8,140.3
				c128.8-18.9,210.7-34.1,203.2-39.7C1668.3,1115,1623.9,1081.4,1582.7,1049.4L1582.7,1049.4z M1512.8,1189.7
				C1185.9,1237.7,557.1,1310,324.5,1310c-40.3,0-68.7-2.2-81.5-7c-2.4-0.9-4.1-1.3-5.1-1.3c-36.1,0,772.5,550.7,856.1,591.3
				c1.5,0.8,3.2,1.1,5,1.1C1154.2,1894.1,1331.6,1552.3,1512.8,1189.7L1512.8,1189.7z"/>
		</g>
	</g>
</g>
</svg>
